<svg class="icon" viewBox="0 0 1024 1024" xmlns="http://www.w3.org/2000/svg" width="200" height="200"><defs><style/></defs><path d="M938.667 810.667h-320C595.093 810.667 576 791.552 576 768c0-23.573 19.093-42.667 42.667-42.667h320c23.573 0 42.666 19.094 42.666 42.667 0 23.552-19.093 42.667-42.666 42.667zm-2.518-128H618.667C595.093 682.667 576 663.573 576 640s19.093-42.667 42.667-42.667h234.645c-23.552-.021-42.645-19.114-42.645-42.666v-76.971c-77.696 33.77-201.558 55.637-341.334 55.637S205.696 511.467 128 477.696V640h27.968c30.656 24.341 164.053 42.667 324.032 42.667 18.176 0 35.947-.256 53.333-.726v.726c23.574 0 42.667 19.093 42.667 42.666C576 748.907 556.907 768 533.333 768c-3.648 0-7.104-.597-10.496-1.45-17.578.767-35.264 1.45-53.504 1.45-139.776 0-263.637-21.867-341.333-55.637V896H42.667V128h1.664C61.14 56.427 244.779 0 469.333 0c224.555 0 408.192 56.427 425.003 128H896v426.667c0 23.552-19.093 42.645-42.645 42.666h82.794c23.574 0 42.667 19.094 42.667 42.667s-19.093 42.667-42.667 42.667zm-125.482-544C810.645 109.205 662.613 85.333 480 85.333c-182.613 0-330.667 23.872-330.667 53.334C149.333 168.128 297.387 192 480 192c182.613 0 330.645-23.872 330.667-53.333zm0 82.944c-77.824 33.77-201.536 55.722-341.334 55.722-139.797 0-263.509-21.952-341.333-55.722v183.722h27.968C186.624 429.675 320.021 448 480 448c159.979 0 293.376-18.325 324.032-42.667h6.635V221.611zM480 938.667c18.176 0 35.947-.256 53.333-.726v.726c23.574 0 42.667 19.093 42.667 42.666 0 23.574-19.093 42.667-42.667 42.667-3.605 0-7.061-.576-10.41-1.43-17.622.747-35.328 1.43-53.59 1.43-224.554 0-408.192-56.427-425.002-128h111.637c30.656 24.341 164.053 42.667 324.032 42.667zm138.667-85.334h320c23.573 0 42.666 19.094 42.666 42.667 0 23.552-19.093 42.667-42.666 42.667h-320C595.093 938.667 576 919.552 576 896c0-23.573 19.093-42.667 42.667-42.667z" fill="#fff"/></svg>