<svg class="icon" viewBox="0 0 1024 1024" xmlns="http://www.w3.org/2000/svg" width="200" height="200"><defs><style/></defs><path d="M373.542 171.719H229.028c-47.887 0-86.78 38.939-86.78 86.946v144.931c0 48.006 29.451 88.364 77.337 88.364h154.673c47.936 0 88.385-40.38 88.385-88.385V259.95c0-48.006-41.165-88.233-89.101-88.233zm55.956 231.857s-12.939 55.24-55.24 55.24H219.585c-15.911 0-44.192-39.289-44.192-55.24V259.951c0-35.663 23.79-55.24 55.24-55.24h143.625c36.325 0 55.24 20.937 55.24 55.24v143.625zM373.542 558.4H229.028c-47.887 0-86.78 38.939-86.78 86.946v144.931c0 48.006 29.451 88.364 77.337 88.364h154.673c47.936 0 88.385-40.38 88.385-88.385V646.632c0-48.007-41.165-88.234-89.101-88.234zm55.956 231.858s-12.939 55.24-55.24 55.24H219.585c-15.911 0-44.192-39.289-44.192-55.24V646.633c0-35.663 23.79-55.24 55.24-55.24h143.625c36.325 0 55.24 20.937 55.24 55.24v143.625zM760.223 558.4H615.71c-47.887 0-86.78 38.939-86.78 86.946v144.931c0 48.006 29.451 88.364 77.337 88.364H760.94c47.936 0 88.385-40.38 88.385-88.385V646.632c-.001-48.007-41.166-88.234-89.101-88.234zm55.956 231.858s-12.939 55.24-55.24 55.24H606.266c-15.912 0-44.192-39.289-44.192-55.24V646.633c0-35.663 23.79-55.24 55.24-55.24h143.625c36.325 0 55.24 20.937 55.24 55.24v143.625zm37.003-520.991L751.624 167.71c-33.946-33.946-91.497-33.283-125.394.612L524.043 270.51c-33.861 33.861-33.828 88.897.118 122.842l102.481 102.482c33.944 33.944 83.309 41.659 117.169 7.798l109.37-109.369c33.897-33.898 33.945-91.051.001-124.996zm-23.437 101.558l-109.371 109.37c-11.251 11.252-59.029 3.468-70.308-7.811L548.508 370.826c-25.217-25.217-22.239-55.882 0-78.12l101.558-101.558c25.686-25.686 53.866-24.255 78.12 0l101.558 101.557c.001.001 29.912 48.21.001 78.121z"/></svg>