<svg class="icon" viewBox="0 0 1024 1024" xmlns="http://www.w3.org/2000/svg" width="200" height="200"><defs><style/></defs><path d="M989.717 416.707c0 105.493-213.798 191.012-477.53 191.012-263.733 0-477.53-85.52-477.53-191.012h38.202c0 84.395 196.693 152.81 439.327 152.81 242.635 0 439.328-68.415 439.328-152.81h38.203zm0 191.013c0 105.492-213.798 191.011-477.53 191.011-263.733 0-477.53-85.52-477.53-191.012h38.202c0 84.395 196.693 152.81 439.327 152.81 242.635 0 439.328-68.415 439.328-152.81h38.203zm0 191.011c0 105.493-213.798 191.012-477.53 191.012-263.733 0-477.53-85.52-477.53-191.012h38.202c0 84.395 196.693 152.81 439.327 152.81 242.635 0 439.328-68.416 439.328-152.81h38.203zM512.186 34.683c-263.732 0-477.53 85.52-477.53 191.012 0 105.493 213.798 191.012 477.53 191.012 263.733 0 477.53-85.52 477.53-191.012S775.92 34.683 512.187 34.683zm0 343.822c-242.634 0-439.327-68.416-439.327-152.81s196.693-152.81 439.327-152.81c242.635 0 439.328 68.416 439.328 152.81s-196.694 152.81-439.328 152.81z"/><path d="M913.312 241.836c-78.204 58.722-228.525 98.466-401.126 98.466-172.6 0-322.921-39.744-401.125-98.466v-22.325c68.63 59.937 222.417 101.691 401.125 101.691 178.71 0 332.496-41.754 401.126-101.69v22.324zM34.656 225.695H72.86v592.138H34.656V225.695zm916.858 0h38.203v592.138h-38.203V225.695zM856.008 779.63l38.203-19.101v57.304l-38.203 19.1V779.63z"/></svg>