<svg class="icon" viewBox="0 0 1024 1024" xmlns="http://www.w3.org/2000/svg" width="200" height="200"><defs><style/></defs><path d="M1011.44 856.37l-3.21 15.63h-115.2l-2.34-1.23C727.04 785.06 549.97 703.45 364.1 686.83l-.22-.02c-.33-.04-33.32-3.63-65.89-3.63-29.88 0-44.37 2.98-51.27 5.48l-1.12.34c-31.4 7.65-57.24 23.51-76.79 47.15-23.06 27.8-34.38 64.86-28.86 94.44l4.11 22.94H12V834.2c0-23.07 68.35-128.68 145.17-214.47 5.87-6.57 10.8-12.08 16.32-18.01l11.8-12.46c74.25-77.75 195.77-151.28 309.63-187.38l10.9-3.45 2.99 11.96.71 1.7c8.52 20.12 87.91 198.57 240.79 248.43l12.44 4.07 23.23-15.54 6.24 6.59c35.74 37.73 94.81 101.2 114.05 123.29 27.9.46 66.93 9.46 88.47 33.66 12.96 14.48 19.21 30.85 16.7 43.78zm-32.74-29.36c-16.29-18.31-49.24-26.49-74.67-26.49-.83 0-1.65.01-2.47.02l-5.15.11-3.31-3.95c-13.32-15.88-72.53-79.64-110.26-119.59l-16.83 11.26-22.36-7.31c-152.78-49.82-235.39-218.8-251.75-255.48-106.42 35.68-222.29 106.61-291.03 178.59l-11.71 12.36c-5.31 5.71-10.17 11.13-15.96 17.63C96.13 720.23 40.42 811.12 34.09 831.92h84.24c-5.56-35.1 7.58-77.82 33.92-109.58 22.45-27.15 51.97-45.38 87.73-54.2 12.56-4.41 31.55-6.56 58.01-6.56 33.15 0 65.61 3.47 68.13 3.74 188.68 16.9 367.25 98.79 532.19 185.07h92.17c0-5.18-3.47-14.1-11.78-23.38zM899.17 482.9l-5.94 12.34c-3 6.01-6.16 11.93-9.45 17.71l-.12.2-7.28 12.18c-29.23 47.5-66.84 87.63-111.87 119.39l-4.41 3.1-5.12-1.67c-79.04-25.86-137.84-89.85-173.25-138.98-38.07-52.82-57.5-99.03-58.3-100.97l-.49-1.44c-8.89-34.23-14.11-71.01-15.51-109.3l-.17-4.62.39-.41c-1.14-43.97 6-102.75 22.12-129.99l5-8.45 8.85 4.2c30.33 14.37 81.24 43.89 97.34 85.91 29.04-4.47 60.37-6.82 91.23-6.82 26.27 0 51.91 1.64 76.33 4.88 18.3-39.08 71.84-73.15 98.67-83.47l9.16-3.53 4.35 8.82c12.28 24.88 18.11 109.12 18.11 126.99l-.11 10.8c-.15 65.07-13.43 126.63-39.53 183.13zm17.79-204.73c-1.19-25.17-5.7-73.12-12.15-96.88-30.12 14.68-70.12 46.1-79.21 74.08l-2.82 8.68-9-1.34c-25.88-3.86-53.33-5.82-81.59-5.82-32.97 0-66.47 2.77-96.87 8.02l-9.91 1.71-2.37-9.82c-8.49-35.13-52.69-62.71-79.09-76.36-10.98 27.29-16.15 77.89-14.61 114.36l1.02 23.81c2.26 27.82 6.69 54.62 13.21 79.92 5.16 11.91 79.36 178.09 212.98 225.34 40.68-29.55 74.79-66.45 101.44-109.77l7.15-11.97c3.08-5.41 6.03-10.93 8.77-16.43l5.8-12.04c26.11-56.52 38.7-118.64 37.37-184.47l-.23-11.02h.11zM373.31 388.75c-29.47 0-65.2-6.34-77.08-24.14-3.64-5.47-5-11.95-5.35-17.7-11.26-1.57-21.49-2.34-31.07-2.34-38.14 0-65.67 12.16-86.66 38.26-20.54 25.82-28.86 58.07-24.01 93.24 3.62 26.74 14.88 55.57 33.49 85.71l4.8 7.78-6.86 6.03a41.776 41.776 0 0 0-3.64 3.65l-.3.34-17.01 17.98-7.39-11.73c-22.71-36.09-36.57-71.19-41.21-104.35-6.46-45.87 4.67-88.31 32.21-122.74 28.17-35.07 65.69-52.32 114.71-52.76.49-.01 1.06-.01 1.64-.01 10.41 0 24.38 1.47 41.57 4.37 3.87-5.39 8.67-9.6 14.17-12.36 4.21-2.06 9.43-3.09 15.6-3.09 28.31 0 83.64 22.64 113.9 65.14l7.65 10.75-12.02 5.39c-18.09 8.12-41.93 12.58-67.14 12.58zm-42.39-72.25c-4.11 0-5.76.71-6.05.85-3.44 1.72-6.36 4.97-8.59 9.61l-2.92 6.05-.75 6.01c-.81 6.55.22 11.63 1.52 13.59 3.9 5.85 25.43 14.54 59.18 14.54 16.24 0 31.66-2.02 44.79-5.8-26.08-28.06-66.27-44.85-87.18-44.85zm-33.5 376.23c34.05 0 67.42 3.71 68.83 3.87.96.12 1.83.22 2.7.32l9.62 1.2 1.91 6.95c3.81 13.84 9.46 25.54 17.21 35.57 6.41-1.59 13-2.42 19.4-2.42 12.68 0 24.13 3.1 33.13 8.97 11.63 7.79 18.25 19.58 18.25 32.41v19.32h-94.68l-2.78-1.96c-39.4-27.71-75.46-56.1-107.18-84.4L245 695.77l25.11-2.05c8.05-.65 17.24-.99 27.31-.99zm83.17 84.59h66.18c-.86-5.85-4.92-9.76-8.39-12.08-5.32-3.47-12.91-5.42-21.29-5.42-6.47 0-13.24 1.17-19.57 3.38l-6.75 2.36-4.79-5.33c-10.61-11.81-18.71-26.04-24.12-42.38-7.31-.75-35.19-3.42-63.06-3.51 25.05 21.13 52.45 42.23 81.79 62.98z"/></svg>