<svg class="icon" viewBox="0 0 1024 1024" xmlns="http://www.w3.org/2000/svg" width="200" height="200"><defs><style/></defs><path d="M922.025 721.909c-22.413-21.297-53.244-35.908-89.16-42.257-6.406-1.13-13.782-2.355-21.59-3.648-26.192-4.344-58.788-9.75-88.28-17.064-36.705-9.102-49.49-16.616-52.708-18.844-3.425-5.85-8.205-19.697-11.969-41.18a205.256 205.256 0 0 0 3.704-2.566c38.648-27.372 70.294-67.569 92.24-116.955a79.247 79.247 0 0 0 13.4-5.867c9.962-5.495 19.031-13.036 26.959-22.414l.047-.056.048-.058c14.148-16.831 23.555-38.104 27.205-61.523l.025-.175.027-.176a133.956 133.956 0 0 0 1.471-19.624v-.16c-.067-21.85-5.634-42.183-16.094-58.807a83.154 83.154 0 0 0-18.577-20.818c-2.46-37.91-10.773-72.2-24.775-102.131-15.725-33.725-38.346-62.291-67.232-84.908-61.988-48.541-132.355-55.943-168.78-56.034h-.258c-36.427.091-106.794 7.494-168.785 56.039-28.897 22.626-51.523 51.207-67.25 84.947-13.993 29.922-22.296 64.19-24.757 102.087a83.216 83.216 0 0 0-18.603 20.862c-10.444 16.619-16 36.938-16.066 58.77v.156c0 6.463.494 13.064 1.47 19.624l.026.176.027.175c3.65 23.42 13.059 44.694 27.208 61.525l.044.055.045.053c7.926 9.377 16.995 16.917 26.954 22.414a79.209 79.209 0 0 0 13.407 5.869c21.936 49.369 53.588 89.578 92.237 116.952a205.8 205.8 0 0 0 3.709 2.568c-3.764 21.483-8.543 35.332-11.969 41.182-3.218 2.23-16.003 9.744-52.708 18.844-29.491 7.314-62.087 12.72-88.278 17.064-7.809 1.295-15.186 2.518-21.591 3.648-35.916 6.347-66.747 20.96-89.16 42.257-26.444 25.127-40.422 58.133-40.422 95.456v.87c0 38.465 15.961 72.311 44.943 95.308 12.84 10.188 27.845 17.95 44.598 23.075 15.317 4.684 31.787 7.06 48.95 7.06h592.195c17.167 0 33.636-2.374 48.953-7.06 16.751-5.124 31.758-12.887 44.598-23.075 28.982-22.997 44.943-56.844 44.943-95.308v-.87c0-37.324-13.977-70.331-40.421-95.458zM628.98 556.943c-.34.23-.682.448-1.023.672-.823.54-1.643 1.08-2.465 1.603-.392.248-.786.49-1.177.733-.783.488-1.564.973-2.35 1.444l-1.18.698c-.794.467-1.59.929-2.384 1.38a152 152 0 0 1-1.13.633c-.83.46-1.658.915-2.488 1.356-.342.183-.684.363-1.026.544-.883.463-1.77.917-2.654 1.36a152.46 152.46 0 0 1-3.793 1.844l-.61.289a159.8 159.8 0 0 1-3.412 1.542c-25.842 11.316-52.027 14.904-75.414 14.904h-.036c-23.37 0-49.532-3.582-75.355-14.878a163.22 163.22 0 0 1-3.48-1.571c-.192-.09-.387-.185-.58-.276-.982-.462-1.964-.934-2.946-1.42l-.866-.433c-.881-.444-1.764-.894-2.643-1.355a164.808 164.808 0 0 1-7-3.897c-.413-.243-.828-.486-1.24-.735-.762-.455-1.522-.926-2.283-1.4-.413-.256-.826-.51-1.237-.772a153.77 153.77 0 0 1-2.394-1.557c-.363-.239-.727-.471-1.09-.715a164.303 164.303 0 0 1-3.447-2.372c-34.683-24.564-62.674-62.718-80.982-110.321l-4.415-11.452-12.253-.502c-4.505-.192-8.917-1.412-12.803-3.566-4.488-2.469-8.753-6.072-12.636-10.666-8.134-9.676-13.603-22.304-15.81-36.462a82.572 82.572 0 0 1-.913-12.09c.037-12.246 2.864-23.19 8.243-31.724 3.465-5.551 8.425-9.837 14.004-12.08l11.49-4.632.2-12.39c.601-37.93 7.568-71.373 20.697-99.42 12.29-26.367 29.925-48.66 52.41-66.266 49.885-39.063 107.337-45.074 137.347-45.149 30.011.076 87.462 6.086 137.348 45.15 22.486 17.605 40.119 39.898 52.41 66.266 13.128 28.046 20.093 61.489 20.696 99.419l.2 12.39 11.49 4.632c5.579 2.242 10.538 6.528 14.003 12.08 5.38 8.536 8.207 19.48 8.245 31.723 0 3.966-.312 8.043-.914 12.09-2.207 14.16-7.676 26.788-15.808 36.463-3.884 4.594-8.151 8.197-12.639 10.666-3.883 2.154-8.297 3.374-12.802 3.566l-12.253.502-4.413 11.452c-18.31 47.603-46.3 85.757-80.982 110.32a165.232 165.232 0 0 1-3.457 2.38zm282.266 261.291c0 48.21-39.082 74.242-87.292 74.242H231.76c-48.21 0-87.292-26.032-87.292-74.242v-.87c0-48.21 36.209-78.265 87.292-87.292 51.083-9.025 169.56-24.618 194.136-58.409 14.675-20.178 21.696-57.672 24.976-84.617 23.37 9.472 49.12 14.26 76.97 14.26 27.874 0 53.63-4.788 77.002-14.261 3.279 26.944 10.301 64.44 24.976 84.618 24.575 33.791 143.052 49.384 194.136 58.41 51.086 9.026 87.292 39.081 87.292 87.291v.87z"/></svg>