<svg class="icon" viewBox="0 0 1024 1024" xmlns="http://www.w3.org/2000/svg" width="200" height="200"><defs><style/></defs><path d="M512 44.8h6.4l396.8 230.4v473.6L518.4 979.2h-12.8L102.4 748.8V275.2L499.2 44.8H512M512 0c-12.8 0-19.2 0-32 6.4L83.2 236.8c-12.8 6.4-25.6 25.6-25.6 38.4v473.6c0 12.8 12.8 32 19.2 38.4L480 1017.6c12.8 6.4 19.2 6.4 32 6.4s19.2 0 32-6.4l396.8-230.4c12.8-6.4 19.2-25.6 19.2-38.4V275.2c0-12.8-12.8-32-19.2-38.4L544 6.4C531.2 0 524.8 0 512 0z" fill="#fff"/><path d="M492.8 512L224 358.4c-12.8-6.4-12.8-19.2-6.4-32 6.4-6.4 19.2-12.8 25.6-6.4L512 473.6c12.8 6.4 12.8 19.2 6.4 32 0 12.8-12.8 12.8-25.6 6.4z" fill="#fff"/><path d="M531.2 505.6v313.6c0 12.8-12.8 19.2-19.2 19.2-12.8 0-19.2-12.8-19.2-19.2V505.6c0-12.8 12.8-19.2 19.2-19.2 12.8 0 19.2 6.4 19.2 19.2z" fill="#fff"/><path d="M800 358.4L531.2 512c-12.8 6.4-25.6 0-32-6.4-6.4-12.8 0-25.6 6.4-32L780.8 320c12.8-6.4 25.6 0 32 6.4 0 12.8 0 25.6-12.8 32z" fill="#fff"/></svg>