<svg class="icon" viewBox="0 0 1024 1024" xmlns="http://www.w3.org/2000/svg" width="200" height="200"><defs><style/></defs><path d="M972.8 767.898V102.4C972.8 46.08 926.72 0 870.4 0H153.6C97.28 0 51.2 46.08 51.2 102.4v819.2c0 56.32 46.08 102.4 102.4 102.4h563.2v-.102c13.312 0 26.42-5.223 36.147-14.95l203.264-203.265c10.24-9.42 16.589-22.835 16.589-37.785 0 .102 0 0 0 0zM102.4 921.6V102.4c0-28.262 22.938-51.2 51.2-51.2h716.8c28.262 0 51.2 22.938 51.2 51.2v614.4H716.8c-28.262 0-51.2 22.938-51.2 51.2v204.8h-512c-28.262 0-51.2-23.04-51.2-51.2zm614.4 51.2V768h204.8L716.8 972.8z" fill="#fff"/><path d="M281.6 256h460.8c14.029 0 25.6-11.571 25.6-25.6 0-14.131-11.571-25.6-25.6-25.6H281.6c-14.029 0-25.6 11.469-25.6 25.6s11.571 25.6 25.6 25.6zm0 204.8h460.8c14.029 0 25.6-11.571 25.6-25.6 0-14.131-11.571-25.6-25.6-25.6H281.6c-14.029 0-25.6 11.469-25.6 25.6 0 14.029 11.571 25.6 25.6 25.6zm256 153.6h-256c-14.029 0-25.6 11.469-25.6 25.6 0 14.029 11.571 25.6 25.6 25.6h256c14.029 0 25.6-11.571 25.6-25.6 0-14.131-11.571-25.6-25.6-25.6z" fill="#fff"/></svg>