<?xml version="1.0" standalone="no"?><!DOCTYPE svg PUBLIC "-//W3C//DTD SVG 1.1//EN" "http://www.w3.org/Graphics/SVG/1.1/DTD/svg11.dtd"><svg t="1494409445320" class="icon" style="" viewBox="0 0 1024 1024" version="1.1" xmlns="http://www.w3.org/2000/svg" p-id="2400" xmlns:xlink="http://www.w3.org/1999/xlink" width="200" height="200"><defs><style type="text/css"></style></defs><path d="M439.101 880.869c-179.607 0-325.208-60.666-325.208-135.503 0-2.602-0.154-5.782 0-8.386-0.316-0.226 0.312 0.226 0 0l0-79.319c58.563 57.263 182.179 96.739 325.208 96.739 38.002 0 74.633-2.786 109.037-7.953 0.938-12.615 2.925-24.937 5.851-36.891-35.725 5.623-74.438 8.709-114.887 8.709-179.607 0-325.208-60.667-325.208-135.503 0-2.602-0.068-5.779 0-8.384l0 0 0-79.32c58.563 57.263 182.179 96.739 325.208 96.739s266.647-39.475 325.208-96.739l0 42.732c2.998-0.118 6.007-0.195 9.034-0.195 9.173 0 18.215 0.562 27.1 1.625l0-326.833c-27.355-81.916-181.192-144.537-361.343-144.537s-333.988 62.622-361.343 144.537l0 0 0 560.082c27.356 81.916 175.817 149.207 361.343 147.235 55.381-0.588 109.645-6.827 156.558-17.404-7.613-9.954-16.214-22.358-22.111-33.518-40.979 7.762-86.499 12.089-134.448 12.089zM439.101 103.98c179.607 0 325.208 60.668 325.208 135.503s-145.6 135.503-325.208 135.503-325.208-60.668-325.208-135.503 145.601-135.503 325.208-135.503zM113.892 411.771l0-97.388c58.563 57.263 182.179 96.739 325.208 96.739s266.647-39.475 325.208-96.739l0 97.388c-0.312 0.226 0.316-0.226 0 0 0.347 2.566 0 5.783 0 8.384 0 74.835-145.601 135.503-325.208 135.503s-325.208-60.668-325.208-135.502c0-2.602-0.347-5.819 0-8.385-0.316-0.225 0.312 0.227 0 0zM764.31 573.728c-99.781 0-180.671 80.89-180.671 180.671 0 99.783 80.89 180.671 180.671 180.671 99.783 0 180.671-80.888 180.671-180.671 0-99.781-80.888-180.671-180.671-180.671zM764.31 898.936c-79.826 0-144.537-64.711-144.537-144.537s64.711-144.537 144.537-144.537 144.537 64.711 144.537 144.537-64.711 144.537-144.537 144.537zM782.377 664.063l-36.134 0 0 72.269-72.269 0 0 36.134 72.269 0 0 72.269 36.134 0 0-72.269 72.269 0 0-36.134-72.269 0 0-72.269z" p-id="2401" fill="#ffffff"></path></svg>