<?xml version="1.0" standalone="no"?><!DOCTYPE svg PUBLIC "-//W3C//DTD SVG 1.1//EN" "http://www.w3.org/Graphics/SVG/1.1/DTD/svg11.dtd"><svg t="1494079902256" class="icon" style="" viewBox="0 0 1026 1024" version="1.1" xmlns="http://www.w3.org/2000/svg" p-id="3900" xmlns:xlink="http://www.w3.org/1999/xlink" width="200.390625" height="200"><defs><style type="text/css"></style></defs><path d="M512.295694 1023.968602c-78.621676 0-157.117759 0.125594-235.739435-0.125594-42.953057-0.125594-74.979458-19.341435-95.074455-57.52193-8.163592-15.573622-11.177842-32.528777-10.801061-49.986306 0.376781-15.573622-0.627969-31.398433 2.135094-46.595274 8.791561-50.488681 49.609524-84.775769 101.60533-84.901363 135.64123-0.502375 271.408055-0.251188 407.049286-0.125594 18.964654 0 33.65912 6.028499 35.417433 22.606872 2.0095 18.83906-7.912406 22.732465-25.495528 27.253839-4.270187 1.130343-8.917155 1.00475-13.312936 1.00475-134.008512 0-268.017024 0-402.025536 0-22.230091 0-56.517179 31.27284-56.768367 53.502929-0.125594 11.303436 0.125594 22.606872 0.376781 33.910308 0.251188 16.578373 33.407933 43.204243 49.986306 44.585775 3.01425 0.251188 6.154093 0.251188 9.168343 0.251188 155.736228 0 311.472455 0 467.208684 0 20.597372 0 46.218493-20.974154 50.488681-37.426932 1.255937-4.898156 1.381531-10.298686 1.381531-15.448029 0.125594-110.020109 0.125594-219.914625-0.125594-329.934735 0-6.656467 1.758312-8.917155 8.41478-10.42428 85.654925-18.587872 148.07501-85.780519 160.634383-172.189006 15.699216-107.382641-73.597927-224.561593-180.478193-241.767934-22.858059-3.642219-45.590525-4.144593-68.32299-0.125594-4.898156 0.879156-7.912406-0.125594-11.052248-4.395781-54.256492-72.718771-126.849669-107.131454-217.151563-99.59583-72.090802 6.028499-129.361544 40.817963-172.063413 99.219048-3.391031 4.646968-6.405281 5.526124-11.680217 4.772562C192.157271 141.923821 72.843226 233.858433 57.646384 348.52551c-14.066498 106.00111 57.145148 218.030719 162.518289 239.25606 5.40053 1.130343 6.782061 3.01425 6.782061 8.163592-0.251188 32.528777 0 52.623774-0.125594 85.152551-0.125594 18.83906-9.41953 32.403183-27.002653 34.915057-16.327185 2.386281-21.978903-7.284436-26.751465-23.109246-1.381531-4.646968-1.883906-9.670717-2.0095-14.568873-0.251188-14.568873-0.251188-29.26334 0-43.832212 0.125594-4.898156-1.255937-7.284436-6.028499-9.41953-86.1573-39.310838-140.162605-105.121954-159.50404-197.810128-29.891309-143.176854 66.187897-288.865584 209.364751-318.505704 19.969403-4.144593 40.692369-4.772562 61.038553-6.279687 5.40053-0.376781 9.042749-1.883906 12.684967-5.651718 61.164147-63.927209 136.269199-97.083955 224.687186-96.832768 87.287643 0.251188 161.51354 33.031151 222.175312 96.079205 4.521374 4.646968 8.791561 6.405281 15.196842 6.405281C884.932297 101.985015 999.976156 199.571344 1021.075903 331.695951c19.718216 122.705076-45.841713 242.64709-160.257602 292.884583-5.526124 2.386281-7.158843 5.149343-7.033249 10.926655 0.125594 93.944112 0.125594 187.888224 0.125594 281.706742 0 41.06915-17.331935 72.718771-53.000555 93.692924-16.452779 9.670717-34.66387 13.061748-53.628523 13.061748C668.911078 1023.843008 590.666183 1023.968602 512.295694 1023.968602L512.295694 1023.968602 512.295694 1023.968602z" p-id="3901"></path></svg>