<?xml version="1.0" standalone="no"?><!DOCTYPE svg PUBLIC "-//W3C//DTD SVG 1.1//EN" "http://www.w3.org/Graphics/SVG/1.1/DTD/svg11.dtd"><svg t="1494083558789" class="icon" style="" viewBox="0 0 1024 1024" version="1.1" xmlns="http://www.w3.org/2000/svg" p-id="2143" xmlns:xlink="http://www.w3.org/1999/xlink" width="200" height="200"><defs><style type="text/css"></style></defs><path d="M922.02496 721.908736c-22.413312-21.297152-53.243904-35.907584-89.160704-42.256384-6.40512-1.130496-13.780992-2.3552-21.590016-3.648512-26.190848-4.343808-58.786816-9.749504-88.27904-17.063936-36.70528-9.102336-49.48992-16.615424-52.708352-18.843648-3.42528-5.850112-8.205312-19.697664-11.968512-41.181184 1.245184-0.841728 2.47808-1.696768 3.703808-2.56512 38.647808-27.37152 70.293504-67.56864 92.239872-116.955136 4.642816-1.543168 9.136128-3.505152 13.39904-5.866496 9.962496-5.495808 19.032064-13.036544 26.959872-22.414336l0.047104-0.05632 0.048128-0.057344c14.147584-16.831488 23.555072-38.104064 27.204608-61.522944l0.0256-0.175104 0.026624-0.176128c0.974848-6.55872 1.471488-13.161472 1.471488-19.623936l0-0.079872 0-0.079872c-0.067584-21.851136-5.634048-42.18368-16.094208-58.807296-5.010432-7.99232-11.33568-15.045632-18.577408-20.81792-2.460672-37.910528-10.77248-72.200192-24.774656-102.131712-15.725568-33.724416-38.345728-62.290944-67.231744-84.908032C634.7776 54.136832 564.411392 46.73536 527.985664 46.644224l-0.129024 0-0.129024 0c-36.426752 0.091136-106.793984 7.493632-168.784896 56.0384-28.896256 22.626304-51.52256 51.207168-67.249152 84.946944-13.993984 29.922304-22.296576 64.190464-24.757248 102.08768-7.247872 5.78048-13.58848 12.850176-18.603008 20.861952-10.4448 16.618496-16 36.937728-16.06656 58.770432l0 0.077824 0 0.077824c0 6.462464 0.494592 13.064192 1.470464 19.623936l0.0256 0.176128 0.027648 0.175104c3.649536 23.41888 13.058048 44.693504 27.20768 61.524992l0.044032 0.054272 0.045056 0.053248c7.92576 9.376768 16.994304 16.917504 26.953728 22.414336 4.265984 2.362368 8.762368 4.3264 13.407232 5.868544 21.936128 49.369088 53.587968 89.578496 92.2368 116.952064 1.226752 0.869376 2.46272 1.72544 3.708928 2.568192-3.764224 21.482496-8.543232 35.332096-11.968512 41.182208-3.218432 2.230272-16.003072 9.74336-52.708352 18.843648-29.4912 7.314432-62.087168 12.720128-88.278016 17.063936-7.809024 1.29536-15.18592 2.518016-21.59104 3.648512-35.915776 6.346752-66.747392 20.959232-89.15968 42.256384-26.4448 25.126912-40.4224 58.133504-40.4224 95.456256l0 0.8704c0 38.464512 15.961088 72.310784 44.94336 95.307776 12.839936 10.187776 27.844608 17.95072 44.597248 23.074816 15.316992 4.683776 31.787008 7.059456 48.951296 7.059456l592.19456 0c17.166336 0 33.635328-2.373632 48.95232-7.059456 16.751616-5.124096 31.758336-12.88704 44.598272-23.074816 28.982272-22.996992 44.94336-56.844288 44.94336-95.307776l0-0.8704C962.446336 780.043264 948.468736 747.035648 922.02496 721.908736zM628.979712 556.94336c-0.339968 0.2304-0.681984 0.447488-1.022976 0.671744-0.822272 0.540672-1.642496 1.08032-2.464768 1.60256-0.392192 0.248832-0.786432 0.489472-1.176576 0.733184-0.78336 0.488448-1.564672 0.9728-2.351104 1.44384-0.393216 0.234496-0.787456 0.46592-1.179648 0.698368-0.7936 0.466944-1.589248 0.928768-2.383872 1.380352-0.375808 0.212992-0.75264 0.422912-1.130496 0.632832-0.828416 0.459776-1.656832 0.914432-2.487296 1.355776-0.342016 0.183296-0.684032 0.362496-1.026048 0.543744-0.882688 0.462848-1.769472 0.917504-2.654208 1.360896-0.288768 0.145408-0.577536 0.290816-0.869376 0.4352-0.973824 0.482304-1.947648 0.951296-2.92352 1.409024-0.202752 0.096256-0.405504 0.192512-0.60928 0.287744-1.135616 0.529408-2.274304 1.043456-3.412992 1.542144-25.841664 11.316224-52.026368 14.90432-75.413504 14.90432l-0.018432 0-0.017408 0c-23.370752 0-49.531904-3.581952-75.355136-14.877696-1.160192-0.507904-2.321408-1.032192-3.479552-1.57184-0.192512-0.090112-0.387072-0.18432-0.580608-0.275456-0.982016-0.461824-1.964032-0.933888-2.946048-1.419264-0.288768-0.144384-0.576512-0.288768-0.866304-0.434176-0.88064-0.443392-1.763328-0.893952-2.642944-1.354752-0.351232-0.185344-0.702464-0.370688-1.051648-0.55808-0.817152-0.437248-1.635328-0.882688-2.451456-1.337344-0.390144-0.217088-0.779264-0.434176-1.169408-0.65536-0.777216-0.44032-1.553408-0.891904-2.327552-1.34656-0.412672-0.242688-0.827392-0.485376-1.240064-0.734208-0.761856-0.45568-1.521664-0.92672-2.282496-1.399808-0.412672-0.257024-0.826368-0.509952-1.236992-0.772096-0.799744-0.50688-1.598464-1.032192-2.394112-1.557504-0.362496-0.238592-0.72704-0.47104-1.089536-0.714752-1.152-0.77312-2.301952-1.560576-3.447808-2.372608-34.68288-24.563712-62.67392-62.717952-80.982016-110.32064l-4.414464-11.452416-12.253184-0.50176c-4.504576-0.191488-8.916992-1.412096-12.803072-3.565568-4.488192-2.468864-8.753152-6.07232-12.63616-10.665984-8.133632-9.675776-13.602816-22.303744-15.809536-36.462592-0.602112-4.047872-0.913408-8.124416-0.913408-12.090368 0.036864-12.244992 2.864128-23.18848 8.2432-31.72352 3.465216-5.551104 8.425472-9.836544 14.004224-12.080128l11.48928-4.631552 0.200704-12.3904c0.601088-37.929984 7.568384-71.3728 20.697088-99.419136 12.290048-26.368 29.924352-48.66048 52.409344-66.266112 49.885184-39.063552 107.337728-45.074432 137.347072-45.149184 30.011392 0.075776 87.461888 6.085632 137.348096 45.149184 22.486016 17.605632 40.119296 39.898112 52.410368 66.266112 13.12768 28.046336 20.092928 61.489152 20.696064 99.419136l0.200704 12.3904 11.488256 4.631552c5.579776 2.24256 10.539008 6.528 14.004224 12.080128 5.380096 8.536064 8.206336 19.479552 8.244224 31.72352 0 3.965952-0.311296 8.042496-0.913408 12.090368-2.20672 14.158848-7.675904 26.78784-15.808512 36.462592-3.884032 4.593664-8.15104 8.19712-12.638208 10.665984-3.883008 2.153472-8.297472 3.37408-12.802048 3.565568l-12.253184 0.50176-4.41344 11.452416c-18.30912 47.602688-46.299136 85.756928-80.982016 110.32064C631.287808 555.377664 630.134784 556.168192 628.979712 556.94336zM911.246336 818.234368c0 48.20992-39.081984 74.242048-87.291904 74.242048L231.758848 892.476416c-48.20992 0-87.291904-26.032128-87.291904-74.242048l0-0.8704c0-48.20992 36.20864-78.265344 87.291904-87.291904 51.083264-9.025536 169.561088-24.617984 194.136064-58.40896 14.674944-20.17792 21.696512-57.67168 24.976384-84.617216 23.369728 9.472 49.119232 14.2592 76.96896 14.2592 27.874304 0 53.629952-4.7872 77.002752-14.260224 3.278848 26.944512 10.30144 64.44032 24.976384 84.61824 24.574976 33.790976 143.051776 49.383424 194.136064 58.40896 51.085312 9.02656 87.291904 39.081984 87.291904 87.291904L911.246336 818.234368 911.246336 818.234368z" p-id="2144"></path></svg>