<?xml version="1.0" standalone="no"?><!DOCTYPE svg PUBLIC "-//W3C//DTD SVG 1.1//EN" "http://www.w3.org/Graphics/SVG/1.1/DTD/svg11.dtd"><svg t="1494249089056" class="icon" style="" viewBox="0 0 1024 1024" version="1.1" xmlns="http://www.w3.org/2000/svg" p-id="7000" xmlns:xlink="http://www.w3.org/1999/xlink" width="200" height="200"><defs><style type="text/css"></style></defs><path d="M512 44.8c6.4 0 6.4 0 6.4 0l396.8 230.4c0 0 0 0 0 0l0 473.6-396.8 230.4c0 0-6.4 0-6.4 0-6.4 0-6.4 0-6.4 0l-403.2-230.4 0-473.6 396.8-230.4C505.6 44.8 505.6 44.8 512 44.8L512 44.8M512 0C499.2 0 492.8 0 480 6.4L83.2 236.8C70.4 243.2 57.6 262.4 57.6 275.2l0 473.6c0 12.8 12.8 32 19.2 38.4l403.2 230.4C492.8 1024 499.2 1024 512 1024c12.8 0 19.2 0 32-6.4l396.8-230.4c12.8-6.4 19.2-25.6 19.2-38.4l0-473.6c0-12.8-12.8-32-19.2-38.4L544 6.4C531.2 0 524.8 0 512 0L512 0z" p-id="7001" fill="#ffffff"></path><path d="M492.8 512 224 358.4C211.2 352 211.2 339.2 217.6 326.4l0 0C224 320 236.8 313.6 243.2 320l268.8 153.6c12.8 6.4 12.8 19.2 6.4 32l0 0C518.4 518.4 505.6 518.4 492.8 512z" p-id="7002" fill="#ffffff"></path><path d="M531.2 505.6l0 313.6c0 12.8-12.8 19.2-19.2 19.2l0 0c-12.8 0-19.2-12.8-19.2-19.2l0-313.6c0-12.8 12.8-19.2 19.2-19.2l0 0C524.8 486.4 531.2 492.8 531.2 505.6z" p-id="7003" fill="#ffffff"></path><path d="M800 358.4 531.2 512c-12.8 6.4-25.6 0-32-6.4l0 0c-6.4-12.8 0-25.6 6.4-32L780.8 320c12.8-6.4 25.6 0 32 6.4l0 0C812.8 339.2 812.8 352 800 358.4z" p-id="7004" fill="#ffffff"></path></svg>