<?xml version="1.0" standalone="no"?><!DOCTYPE svg PUBLIC "-//W3C//DTD SVG 1.1//EN" "http://www.w3.org/Graphics/SVG/1.1/DTD/svg11.dtd"><svg t="1494254074931" class="icon" style="" viewBox="0 0 1024 1024" version="1.1" xmlns="http://www.w3.org/2000/svg" p-id="17727" xmlns:xlink="http://www.w3.org/1999/xlink" width="200" height="200"><defs><style type="text/css"></style></defs><path d="M1024 70.4c0-12.8-12.8-25.6-25.6-25.6L25.6 44.8C12.8 51.2 0 57.6 0 70.4l0 281.6c0 38.4 12.8 76.8 38.4 108.8l0 518.4 947.2 0L985.6 454.4c25.6-32 38.4-64 38.4-108.8L1024 70.4 1024 70.4zM44.8 96l928 0 0 256c0 70.4-64 128-140.8 128-76.8 0-140.8-57.6-140.8-128 0-12.8-12.8-25.6-25.6-25.6-12.8 0-25.6 12.8-25.6 25.6 0 70.4-64 128-140.8 128-76.8 0-140.8-57.6-140.8-128 0-12.8-12.8-25.6-25.6-25.6-12.8 0-25.6 12.8-25.6 25.6 0 70.4-64 128-140.8 128-38.4 0-76.8-12.8-102.4-44.8l0 0 0 0C64 416 44.8 384 44.8 352L44.8 96 44.8 96zM83.2 928 83.2 499.2c32 19.2 64 32 102.4 32 70.4 0 128-38.4 160-89.6C384 492.8 441.6 531.2 512 531.2c70.4 0 128-38.4 160-89.6C704 492.8 768 531.2 838.4 531.2c38.4 0 70.4-12.8 102.4-32l0 428.8L83.2 928 83.2 928zM83.2 928" p-id="17728"></path></svg>