<?xml version="1.0" standalone="no"?><!DOCTYPE svg PUBLIC "-//W3C//DTD SVG 1.1//EN" "http://www.w3.org/Graphics/SVG/1.1/DTD/svg11.dtd"><svg t="1494249154825" class="icon" style="" viewBox="0 0 1024 1024" version="1.1" xmlns="http://www.w3.org/2000/svg" p-id="7714" xmlns:xlink="http://www.w3.org/1999/xlink" width="200" height="200"><defs><style type="text/css"></style></defs><path d="M511.488 992.256H41.472c-27.136 0-35.84-8.192-35.84-35.328 0-144.896-0.512-290.304 0.512-435.2 0-19.456 6.656-38.912 11.776-57.856 38.4-135.68 76.8-270.848 114.688-406.528 5.632-19.968 13.312-25.6 33.792-25.6h691.2c19.968 0 27.648 6.144 33.28 25.088 41.472 146.432 82.432 293.376 123.904 439.808 2.048 7.68 3.584 16.384 3.584 24.576V957.44c0 26.112-9.216 35.328-35.328 35.328-157.184-0.512-314.368-0.512-471.552-0.512z m-451.584-54.784h903.68c0-3.584 0.512-6.656 0.512-9.728v-403.456c0-6.144-1.024-11.776-2.56-17.408-26.624-95.232-53.248-189.952-79.872-284.672L843.264 87.04H181.76c-1.024 3.072-2.048 5.632-2.56 8.192-38.4 136.704-77.312 273.92-115.2 410.624-2.048 7.168-3.072 14.848-3.072 22.016v396.8c-1.024 3.584-1.024 8.192-1.024 12.8z" p-id="7715" fill="#ffffff"></path><path d="M862.208 502.784c-38.4 0-75.264 0.512-112.128-0.512-10.752 0-17.92 3.072-25.088 11.264-36.864 40.96-73.728 81.408-111.104 121.344-3.584 4.096-10.752 7.168-15.872 7.168-57.344 0.512-115.2 0.512-172.544 0-5.632 0-12.288-3.072-15.872-7.168-38.4-41.472-76.288-82.944-114.176-124.416-5.12-5.632-10.24-7.68-17.408-7.68-38.4 0.512-76.8 0-116.224 0 31.744-128 63.488-255.488 95.232-382.976h509.44l95.744 382.976zM299.52 173.568C276.48 265.216 253.952 356.352 230.912 449.024c17.408 0 33.28 0.512 48.64 0 22.016-1.024 38.912 7.168 53.76 23.04 33.28 36.864 66.56 73.216 100.352 109.568 3.584 3.584 10.24 6.656 15.36 6.656 41.472 0.512 83.456 0.512 124.928 0 5.632 0 12.288-3.072 15.872-7.168 33.792-36.352 67.584-72.704 100.864-109.568 13.824-15.36 30.72-23.552 51.712-22.528 16.384 0.512 32.768 0 49.664 0-0.512-4.096-1.024-6.656-1.536-9.216-21.504-84.992-42.496-169.984-63.488-255.488-2.048-8.704-5.632-10.752-14.336-10.752-134.144 0.512-268.288 0-402.432 0h-10.752z" p-id="7716" fill="#ffffff"></path><path d="M513.024 252.416h84.48c19.968 0 32.256 10.752 32.256 28.16 0 16.896-12.288 28.16-32.256 28.16H425.472c-19.456 0-32.256-11.264-31.744-28.672 0-16.896 12.288-27.648 31.744-27.648h87.552zM510.464 437.248H425.984c-19.968 0-32.256-10.752-32.256-28.16 0-16.896 12.288-28.16 32.256-28.16h172.032c19.456 0 32.256 11.264 31.744 28.672 0 16.896-12.288 27.648-31.232 27.648-29.696 0.512-58.88 0-88.064 0z" p-id="7717" fill="#ffffff"></path></svg>