<?xml version="1.0" standalone="no"?><!DOCTYPE svg PUBLIC "-//W3C//DTD SVG 1.1//EN" "http://www.w3.org/Graphics/SVG/1.1/DTD/svg11.dtd"><svg t="1494248900621" class="icon" style="" viewBox="0 0 1024 1024" version="1.1" xmlns="http://www.w3.org/2000/svg" p-id="4206" xmlns:xlink="http://www.w3.org/1999/xlink" width="200" height="200"><defs><style type="text/css"></style></defs><path d="M727.3 444.773c-5.605 0-11.249 0.327-16.926 0.995v-0.995c0-102.646-83.501-186.159-186.148-186.159s-186.159 83.501-186.159 186.159v0.995c-5.662-0.662-11.318-0.995-16.926-0.995-83.987 0-152.313 68.327-152.313 152.317s68.317 152.313 152.313 152.313h406.149c9.359 0 16.926-7.57 16.926-16.926 0-9.359-7.568-16.926-16.926-16.926h-406.149c-65.328 0-118.455-53.15-118.455-118.463 0-75.457 71.852-135.146 149.441-114.223 5.486 1.5 11.306 0.132 15.534-3.586 4.265-3.719 6.382-9.317 5.662-14.928-0.973-7.431-1.423-13.669-1.423-19.586 0-83.987 68.317-152.313 152.313-152.313s152.3 68.317 152.3 152.313c0 5.917-0.448 12.145-1.423 19.586-0.706 5.605 1.406 11.203 5.662 14.928 4.235 3.7 10.079 5.062 15.534 3.586 77.652-20.99 149.443 38.765 149.443 114.223 0 20.093-5.175 39.99-14.967 57.577-4.569 8.17-1.632 18.446 6.527 23.006 8.17 4.564 18.459 1.627 23.017-6.512 12.611-22.614 19.27-48.221 19.27-74.066 0.001-83.987-68.317-152.317-152.313-152.317z" p-id="4207" fill="#ffffff"></path></svg>