<?xml version="1.0" standalone="no"?><!DOCTYPE svg PUBLIC "-//W3C//DTD SVG 1.1//EN" "http://www.w3.org/Graphics/SVG/1.1/DTD/svg11.dtd"><svg t="1494253923086" class="icon" style="" viewBox="0 0 1024 1024" version="1.1" xmlns="http://www.w3.org/2000/svg" p-id="13843" xmlns:xlink="http://www.w3.org/1999/xlink" width="200" height="200"><defs><style type="text/css"></style></defs><path d="M892.518 80.64 132.765 80.64c-41.38 0-74.91 33.535-74.91 74.905l0 306.239 0 12.07 0 383.844c0 41.38 33.54 74.91 74.91 74.91l54.675 0 0.49-0.58c1.985 0.375 4.027 0.58 6.12 0.58l395.939 0 153.39 0 149.14 0c41.375 0 74.905-33.54 74.905-74.91L967.424 155.544C967.422 114.17 933.883 80.64 892.518 80.64zM901.888 829.608c0 20.69-16.76 37.46-37.465 37.46L743.378 867.068l-97.45 0L242.852 867.068l-48.802 0-33.2 0c-20.685 0-37.46-16.755-37.46-37.46L123.39 473.854l0-12.07L123.39 183.635c0-20.69 16.76-37.46 37.46-37.46l703.573 0c20.69 0 37.465 16.76 37.465 37.46L901.888 829.608zM306.677 269.024l64.065 2.363c18.66-1.42 32.635-17.7 31.215-36.36-1.417-18.657-17.7-32.635-36.357-31.215l-156.68-5.778c-18.66 1.42-32.637 17.7-31.217 36.36 0.005 0.06 0.017 0.115 0.022 0.175 0.003 0.058 0 0.115 0.005 0.175l0.052 0.277c0.21 2.22 0.62 4.373 1.23 6.438l28.14 147.285c1.417 18.66 17.697 32.637 36.357 31.218 18.66-1.42 32.635-17.7 31.217-36.357l-11.833-61.938 129.91 130.3c12.955 13.295 34.237 13.573 47.532 0.617 13.295-12.955 13.57-34.235 0.615-47.532L306.677 269.024zM719.493 269.024l-64.065 2.363c-18.66-1.42-32.635-17.7-31.215-36.36 1.415-18.657 17.695-32.635 36.355-31.215l156.68-5.778c18.66 1.42 32.64 17.7 31.22 36.36-0.005 0.06-0.02 0.115-0.02 0.175-0.005 0.058 0 0.115-0.01 0.175l-0.05 0.277c-0.21 2.22-0.62 4.373-1.23 6.438l-28.14 147.285c-1.42 18.66-17.7 32.637-36.36 31.218-18.66-1.42-32.635-17.7-31.215-36.357l11.835-61.938-129.91 130.3c-12.955 13.295-34.24 13.57-47.53 0.617-13.3-12.955-13.57-34.237-0.62-47.532L719.493 269.024zM306.677 745.688l64.065-2.36c18.66 1.42 32.635 17.7 31.215 36.36-1.417 18.66-17.7 32.635-36.357 31.22l-156.68 5.77c-18.66-1.415-32.637-17.695-31.217-36.355 0.005-0.06 0.017-0.115 0.022-0.175 0.003-0.06 0-0.12 0.005-0.175l0.052-0.28c0.21-2.22 0.62-4.375 1.23-6.435l28.14-147.29c1.417-18.66 17.697-32.635 36.357-31.215 18.66 1.42 32.635 17.7 31.217 36.36l-11.833 61.935 129.91-130.3c12.955-13.295 34.237-13.57 47.532-0.615 13.295 12.955 13.57 34.235 0.615 47.53L306.677 745.688zM719.493 745.688l-64.065-2.36c-18.66 1.42-32.635 17.7-31.215 36.36 1.415 18.66 17.695 32.635 36.355 31.22l156.68 5.77c18.66-1.415 32.64-17.695 31.22-36.355-0.005-0.06-0.02-0.115-0.02-0.175-0.005-0.06 0-0.12-0.01-0.175l-0.05-0.28c-0.21-2.22-0.62-4.375-1.23-6.435l-28.14-147.29c-1.415-18.66-17.7-32.635-36.355-31.215-18.66 1.42-32.635 17.7-31.215 36.355l11.83 61.94-129.91-130.3c-12.955-13.295-34.24-13.57-47.53-0.615-13.3 12.955-13.57 34.235-0.62 47.53L719.493 745.688z" p-id="13844"></path></svg>