<?xml version="1.0" standalone="no"?><!DOCTYPE svg PUBLIC "-//W3C//DTD SVG 1.1//EN" "http://www.w3.org/Graphics/SVG/1.1/DTD/svg11.dtd"><svg t="1494293291828" class="icon" style="" viewBox="0 0 1024 1024" version="1.1" xmlns="http://www.w3.org/2000/svg" p-id="1764" xmlns:xlink="http://www.w3.org/1999/xlink" width="200" height="200"><defs><style type="text/css"></style></defs><path d="M939.22816 79.17056h-854.46144c-44.51328 0-80.73728 36.20864-80.73728 80.72704v544.9728c0 44.51328 36.21888 80.73728 80.73728 80.73728h316.21632v118.8608h-158.11072v40.36096h529.27488v-40.36096h-149.14048v-118.8608h316.21632c44.5184 0 80.7424-36.21888 80.7424-80.73728V159.8976c0.00512-44.5184-36.21888-80.72704-80.73728-80.72704z m26.91072 625.69984c0 14.848-12.07296 26.91584-26.91584 26.91584h-854.46144a26.94144 26.94144 0 0 1-26.91072-26.91584V159.8976a26.94144 26.94144 0 0 1 26.91072-26.91072h854.46144a26.94144 26.94144 0 0 1 26.91584 26.91072v544.9728z" p-id="1765" fill="#2c2c2c"></path></svg>