<?xml version="1.0" standalone="no"?><!DOCTYPE svg PUBLIC "-//W3C//DTD SVG 1.1//EN" "http://www.w3.org/Graphics/SVG/1.1/DTD/svg11.dtd"><svg t="1494253962323" class="icon" style="" viewBox="0 0 1024 1024" version="1.1" xmlns="http://www.w3.org/2000/svg" p-id="14499" xmlns:xlink="http://www.w3.org/1999/xlink" width="200" height="200"><defs><style type="text/css"></style></defs><path d="M311.6288 380.4416 275.4304 416.64 347.9808 489.1904 197.3504 489.1904 197.3504 540.3904 347.9552 540.3904 275.4304 612.9408 311.6288 649.1392 445.952 514.7648Z" p-id="14500"></path><path d="M910.7968 88.1664l-408.704 81.7408L93.3888 88.1664l0 840.8064 408.704-81.7408 408.704 81.7408L910.7968 88.1664zM144.5888 150.6048l331.008 66.2016 0 583.5008-331.008 66.2016L144.5888 150.6048zM859.5968 866.5088l-331.008-66.2016L528.5888 216.8064l331.008-66.2016L859.5968 866.5088z" p-id="14501"></path><path d="M692.5312 380.4416 728.7296 416.64 656.1792 489.1904 806.8096 489.1904 806.8096 540.3904 656.2048 540.3904 728.7296 612.9408 692.5312 649.1392 558.208 514.7648Z" p-id="14502"></path></svg>