<?xml version="1.0" standalone="no"?><!DOCTYPE svg PUBLIC "-//W3C//DTD SVG 1.1//EN" "http://www.w3.org/Graphics/SVG/1.1/DTD/svg11.dtd"><svg t="1494409467451" class="icon" style="" viewBox="0 0 1024 1024" version="1.1" xmlns="http://www.w3.org/2000/svg" p-id="2713" xmlns:xlink="http://www.w3.org/1999/xlink" width="200" height="200"><defs><style type="text/css"></style></defs><path d="M518.3488 291.6352c1.4336 39.1168 6.7584 74.9568 15.36 107.9296 0 0 78.2336 187.1872 227.7376 235.9296 43.4176-30.5152 81.1008-70.0416 110.1824-117.1456l7.3728-12.288c3.2768-5.7344 6.3488-11.4688 9.216-17.2032l5.9392-12.288c26.0096-56.1152 40.3456-120.6272 38.912-191.0784 0 0 0 0 0.2048 0 0-19.2512-6.144-100.9664-17.2032-123.2896-29.9008 11.4688-84.5824 48.3328-96.8704 86.016-59.1872-8.8064-125.7472-7.7824-184.1152 2.2528-9.8304-40.5504-58.7776-71.68-95.6416-89.088-15.5648 26.2144-22.528 87.2448-20.6848 130.4576C518.5536 291.4304 518.3488 291.6352 518.3488 291.6352z" p-id="2714" fill="#2c2c2c"></path><path d="M992.6656 821.0432c-18.8416-21.0944-55.7056-30.9248-86.4256-30.3104-14.1312-16.7936-79.0528-86.4256-118.3744-127.7952l-20.2752 13.5168-17.6128-5.7344c-163.84-53.248-246.9888-248.6272-250.4704-256.8192l-1.024-2.4576-0.4096-1.6384c-117.3504 37.0688-238.3872 112.64-308.8384 186.1632l-11.8784 12.4928c-5.7344 6.144-11.0592 12.0832-16.384 18.0224C77.6192 719.2576 16.7936 819.2 16.7936 835.584l0 8.6016 109.7728 0-1.8432-10.24c-6.144-32.768 6.144-73.728 31.5392-104.2432 15.9744-19.2512 42.1888-41.1648 83.5584-51.2 33.9968-12.288 123.4944-2.4576 123.4944-2.4576 176.9472 15.7696 346.112 87.04 537.1904 186.7776L1005.568 862.8224l1.4336-6.9632C1008.8448 846.4384 1003.52 833.1264 992.6656 821.0432z" p-id="2715" fill="#2c2c2c"></path><path d="M443.5968 756.9408c-12.9024-8.3968-32.768-9.6256-50.9952-3.2768-11.264-12.4928-19.2512-27.648-24.1664-45.4656-1.6384-0.2048-3.4816-0.4096-5.12-0.6144 0 0-54.8864-6.144-95.232-2.8672 31.3344 27.8528 67.7888 56.5248 107.52 84.3776l81.5104 0 0-8.6016C457.1136 771.072 452.1984 762.6752 443.5968 756.9408z" p-id="2716" fill="#2c2c2c"></path><path d="M157.0816 579.1744l7.5776-7.9872c1.4336-1.6384 3.072-3.2768 4.7104-4.7104C147.0464 530.432 137.216 499.9168 133.9392 475.7504c-5.3248-38.5024 3.8912-73.9328 26.624-102.4 35.84-44.4416 86.6304-47.5136 138.8544-38.7072-1.024 8.192 0 16.1792 3.2768 21.0944 13.7216 20.48 88.064 27.648 132.5056 7.7824-32.768-45.8752-98.9184-68.1984-117.3504-59.1872-6.144 3.072-10.6496 8.3968-13.7216 14.7456-18.0224-3.2768-36.0448-5.7344-49.152-5.5296-46.08 0.4096-81.3056 16.384-107.7248 49.152-25.8048 32.1536-36.4544 72.0896-30.3104 115.5072C121.4464 510.3616 134.9632 544.1536 157.0816 579.1744z" p-id="2717" fill="#2c2c2c"></path></svg>