<?xml version="1.0" standalone="no"?><!DOCTYPE svg PUBLIC "-//W3C//DTD SVG 1.1//EN" "http://www.w3.org/Graphics/SVG/1.1/DTD/svg11.dtd"><svg t="1494253816312" class="icon" style="" viewBox="0 0 1024 1024" version="1.1" xmlns="http://www.w3.org/2000/svg" p-id="12225" xmlns:xlink="http://www.w3.org/1999/xlink" width="200" height="200"><defs><style type="text/css"></style></defs><path d="M510.806825 328.757582c-101.171214 0-183.508477 82.338287-183.508477 183.507454 0 101.170191 82.337263 183.507454 183.508477 183.507454 101.169167 0 183.507454-82.337263 183.507454-183.507454C694.313256 411.095869 611.975992 328.757582 510.806825 328.757582zM509.934968 589.622892c-42.678008 0-77.360925-34.641985-77.360925-77.319993 0-42.715871 34.682917-77.324086 77.360925-77.324086 42.674938 0 77.283154 34.608216 77.283154 77.324086C587.217099 554.980907 552.609906 589.622892 509.934968 589.622892z" p-id="12226" fill="#2c2c2c"></path><path d="M958.815395 567.409984l0-111.998817L825.508273 433.635211c-7.887644-31.589462-20.283975-61.254086-36.606733-88.446401l77.685313-110.729917-79.211063-79.174224-109.311615 78.592986c-27.267017-16.505929-57.109696-29.083385-88.919169-37.008892l-23.228027-132.647089-112.00291 0-21.593807 132.212184c-31.80845 7.817036-61.8343 20.213367-89.171925 36.644595l-108.983133-77.867462-79.215156 79.177294 76.66917 109.639073c-16.576537 27.446096-29.192879 57.434084-37.187971 89.462544l-131.635039 21.921265 0 111.998817 131.48973 23.302729c7.925507 31.953759 20.536732 61.945841 37.186947 89.428775l-77.721129 108.693538 79.177294 79.247902 109.783359-76.885088c27.409257 16.464997 57.363476 28.972868 89.171925 36.82265l22.029736 132.285862 112.00291 0 23.518646-132.647089c31.66314-8.000208 61.543681-20.615527 88.699158-37.154201l110.546745 77.576843 79.177294-79.247902-78.883605-109.567441c16.319687-27.189246 28.716019-56.890708 36.533055-88.48017L958.815395 567.409984zM510.806825 755.173368c-134.141116 0-242.908332-108.768239-242.908332-242.907309s108.767216-242.907309 242.908332-242.907309c134.13907 0 242.907309 108.767216 242.907309 242.907309S644.945895 755.173368 510.806825 755.173368z" p-id="12227" fill="#2c2c2c"></path></svg>