<?xml version="1.0" standalone="no"?><!DOCTYPE svg PUBLIC "-//W3C//DTD SVG 1.1//EN" "http://www.w3.org/Graphics/SVG/1.1/DTD/svg11.dtd"><svg t="1494249050114" class="icon" style="" viewBox="0 0 1024 1024" version="1.1" xmlns="http://www.w3.org/2000/svg" p-id="6301" xmlns:xlink="http://www.w3.org/1999/xlink" width="200" height="200"><defs><style type="text/css"></style></defs><path d="M972.8 767.8976V102.4C972.8 46.08 926.72 0 870.4 0H153.6C97.28 0 51.2 46.08 51.2 102.4v819.2c0 56.32 46.08 102.4 102.4 102.4h563.2v-0.1024c13.312 0 26.4192-5.2224 36.1472-14.9504l203.264-203.264c10.24-9.4208 16.5888-22.8352 16.5888-37.7856 0 0.1024 0 0 0 0zM102.4 921.6V102.4c0-28.2624 22.9376-51.2 51.2-51.2h716.8c28.2624 0 51.2 22.9376 51.2 51.2v614.4H716.8c-28.2624 0-51.2 22.9376-51.2 51.2v204.8H153.6c-28.2624 0-51.2-23.04-51.2-51.2z m614.4 51.2V768h204.8L716.8 972.8z" p-id="6302" fill="#ffffff"></path><path d="M281.6 256h460.8c14.0288 0 25.6-11.5712 25.6-25.6 0-14.1312-11.5712-25.6-25.6-25.6H281.6c-14.0288 0-25.6 11.4688-25.6 25.6s11.5712 25.6 25.6 25.6zM281.6 460.8h460.8c14.0288 0 25.6-11.5712 25.6-25.6 0-14.1312-11.5712-25.6-25.6-25.6H281.6c-14.0288 0-25.6 11.4688-25.6 25.6 0 14.0288 11.5712 25.6 25.6 25.6zM537.6 614.4H281.6c-14.0288 0-25.6 11.4688-25.6 25.6 0 14.0288 11.5712 25.6 25.6 25.6h256c14.0288 0 25.6-11.5712 25.6-25.6 0-14.1312-11.5712-25.6-25.6-25.6z" p-id="6303" fill="#ffffff"></path></svg>