<?xml version="1.0" standalone="no"?><!DOCTYPE svg PUBLIC "-//W3C//DTD SVG 1.1//EN" "http://www.w3.org/Graphics/SVG/1.1/DTD/svg11.dtd"><svg t="1494250435848" class="icon" style="" viewBox="0 0 1024 1024" version="1.1" xmlns="http://www.w3.org/2000/svg" p-id="11936" xmlns:xlink="http://www.w3.org/1999/xlink" width="200" height="200"><defs><style type="text/css"></style></defs><path d="M932.416 414.144l-63.616-6.72c-6.976-23.296-16.384-45.888-27.904-67.392l40.32-49.792c16.256-20.096 13.312-51.52-6.656-71.488l-62.656-62.656C800.96 145.152 786.048 138.88 771.2 138.88c-11.712 0-22.336 3.712-30.784 10.496l-49.792 40.32c-21.44-11.648-44.032-20.928-67.392-27.968L616.512 98.112C613.824 72.384 589.504 52.224 561.216 52.224L472.704 52.224c-28.288 0-52.544 20.16-55.232 45.888L410.752 161.728C387.456 168.768 364.8 178.048 343.36 189.696l-49.792-40.32C284.992 142.528 274.432 138.88 262.784 138.88c-14.976 0-29.888 6.272-40.768 17.216L159.36 218.624C139.456 238.72 136.512 270.144 152.768 290.176l40.32 49.792C181.44 361.472 172.096 384.064 165.12 407.296L101.504 414.08C75.776 416.704 55.552 441.088 55.552 469.312l0 88.576c0 28.224 20.16 52.544 45.952 55.232L165.12 619.84c6.976 23.296 16.32 45.952 27.968 67.392l-40.32 49.728c-16.256 20.096-13.312 51.584 6.592 71.552l62.72 62.656c10.88 10.944 25.728 17.216 40.768 17.216 11.648 0 22.208-3.712 30.72-10.56l49.792-40.256c21.44 11.584 44.096 20.864 67.392 27.968l6.656 63.616c2.688 25.728 26.944 45.888 55.168 45.888l88.64 0c28.224 0 52.544-20.16 55.232-45.888l6.656-63.616c23.296-7.04 45.952-16.384 67.392-27.968l49.792 40.256c8.512 6.912 19.136 10.56 30.784 10.56 14.848 0 29.76-6.272 40.704-17.216l62.656-62.656c20.032-20.032 22.912-51.456 6.656-71.488l-40.32-49.792c11.584-21.44 20.928-44.032 27.904-67.392l63.616-6.656c25.728-2.688 45.952-27.008 45.952-55.232L978.24 469.312C978.368 441.088 958.208 416.704 932.416 414.144L932.416 414.144 932.416 414.144zM934.656 557.888c0 6.464-4.032 11.648-6.784 11.904l-93.44 9.856-3.84 14.72c-7.488 29.44-19.264 57.664-34.816 84.032l-7.68 12.992 59.136 73.088c1.728 2.112 1.024 8.64-3.584 13.184l-62.72 62.656c-2.624 2.624-6.464 4.352-9.792 4.352-1.472 0-2.752-0.32-3.456-0.896l-73.024-59.072-13.056 7.68c-26.304 15.552-54.592 27.264-84.032 34.816l-14.656 3.84-9.856 93.44c-0.32 2.688-5.44 6.848-11.904 6.848L472.64 931.328c-6.464 0-11.584-4.16-11.84-6.848l-9.792-93.44-14.784-3.84c-29.44-7.552-57.664-19.264-84.032-34.816L339.2 784.768l-73.024 59.072c-0.704 0.576-1.92 0.896-3.392 0.896-3.392 0-7.168-1.728-9.92-4.352L190.272 777.6c-4.544-4.544-5.248-11.072-3.52-13.184l59.136-73.088-7.744-13.056c-15.616-26.368-27.328-54.528-34.816-84.032l-3.84-14.72L106.112 569.728C103.36 569.472 99.2 564.288 99.2 557.888L99.2 469.312c0-6.528 4.096-11.584 6.912-11.904l93.376-9.792 3.84-14.72c7.488-29.504 19.264-57.728 34.816-84.032l7.744-13.056L186.752 262.784C185.024 260.608 185.664 254.208 190.272 249.472l62.592-62.528c2.752-2.752 6.592-4.416 9.92-4.416 1.408 0 2.688 0.32 3.392 0.896L339.2 242.496l13.056-7.68c26.368-15.68 54.656-27.392 84.032-34.944l14.72-3.712L460.8 102.72c0.32-2.752 5.376-6.848 11.904-6.848l88.576 0c6.464 0 11.584 4.096 11.904 6.848l9.856 93.44 14.656 3.712c29.44 7.552 57.664 19.264 84.032 34.944l12.992 7.68 73.088-59.136c0.704-0.576 1.856-0.896 3.392-0.896 3.328 0 7.168 1.664 9.856 4.416l62.656 62.528c4.544 4.672 5.312 11.136 3.584 13.312l-59.136 73.024 7.68 13.056c15.552 26.304 27.328 54.528 34.88 84.032l3.776 14.72 93.44 9.792c2.752 0.32 6.784 5.376 6.784 11.904L934.72 557.888 934.656 557.888 934.656 557.888zM516.928 368.832c-79.808 0-144.832 64.96-144.832 144.832 0 79.744 65.024 144.832 144.832 144.832 79.872 0 144.896-65.088 144.896-144.832C661.824 433.728 596.8 368.832 516.928 368.832L516.928 368.832 516.928 368.832zM516.928 614.784c-55.744 0-101.12-45.376-101.12-101.12 0-55.808 45.376-101.184 101.12-101.184 55.808 0 101.184 45.376 101.184 101.184C618.112 569.344 572.736 614.784 516.928 614.784L516.928 614.784 516.928 614.784zM516.928 614.784" p-id="11937" fill="#ffffff"></path><path d="M561.216 983.104 472.64 983.104c-32.384 0-60.224-23.36-63.36-53.184l-6.144-58.24c-20.224-6.464-40-14.656-58.88-24.448l-45.504 36.864c-22.784 18.368-60.224 14.976-82.496-7.168L153.6 814.272c-22.976-22.912-26.112-59.072-7.168-82.496l36.864-45.504c-9.856-18.88-18.048-38.656-24.448-58.816l-58.24-6.144C70.72 618.112 47.36 590.272 47.36 557.888L47.36 469.312c0-32.448 23.36-60.288 53.248-63.424l58.24-6.208c6.4-20.096 14.592-39.808 24.448-58.752L146.432 295.36C127.552 272.064 130.688 235.84 153.6 212.864l62.592-62.592C238.464 128 275.84 124.544 298.752 143.04l45.504 36.864c18.944-9.856 38.72-18.048 58.88-24.448l6.144-58.24C412.352 67.456 440.32 44.032 472.704 44.032l88.576 0c32.384 0 60.224 23.424 63.36 53.248l6.272 58.24c20.16 6.4 39.936 14.656 58.752 24.448l45.568-36.864c22.784-18.432 60.16-15.04 82.496 7.232l62.656 62.592c22.912 22.912 26.048 59.2 7.232 82.496l-36.864 45.568c9.792 18.944 17.984 38.656 24.448 58.816l58.176 6.144c29.888 3.136 53.248 30.976 53.248 63.424l0 88.576c0 32.448-23.36 60.224-53.312 63.424l-58.112 6.144c-6.464 20.16-14.656 39.936-24.448 58.816l36.864 45.632c18.88 23.296 15.68 59.52-7.232 82.368l-62.656 62.656c-22.4 22.272-59.776 25.536-82.496 7.168l-45.568-36.864c-18.816 9.728-38.528 17.92-58.816 24.448L624.64 929.92C621.504 959.744 593.664 983.104 561.216 983.104zM342.464 827.712l4.736 2.56c20.992 11.264 43.136 20.416 65.92 27.392l5.184 1.536 7.232 68.992c2.304 21.632 22.976 38.528 47.04 38.528l88.64 0c24.128 0 44.864-16.896 47.104-38.528l7.232-68.992L620.8 857.6c22.848-6.912 45.056-16.192 65.856-27.392l4.8-2.56 54.016 43.648c16.384 13.312 44.096 10.56 60.608-6.016l62.656-62.656c17.024-17.088 19.712-43.712 6.016-60.544l-43.648-53.952 2.56-4.8c11.264-21.056 20.416-43.264 27.328-65.984l1.536-5.12 68.992-7.232c21.632-2.24 38.528-22.912 38.528-47.104L970.048 469.312c0-24.128-16.96-44.8-38.528-47.04l-68.992-7.296-1.536-5.184c-6.848-22.72-16.064-44.864-27.328-65.92l-2.56-4.736 43.648-54.016c13.696-16.896 11.008-43.52-6.016-60.544l-62.656-62.656c-16.576-16.576-44.096-19.392-60.608-6.016l-54.016 43.648-4.8-2.496C665.792 185.6 643.712 176.512 620.864 169.6L615.616 168.064 608.384 99.008C606.144 77.376 585.344 60.416 561.216 60.416L472.704 60.416c-24.128 0-44.8 16.96-47.104 38.592L418.304 168.064 413.12 169.6C390.4 176.512 368.192 185.536 347.2 196.992L342.464 199.488 288.384 155.84c-16.512-13.44-44.032-10.496-60.416 5.952l-62.72 62.592C148.16 241.536 145.472 268.16 159.168 285.056L202.88 339.072 200.32 343.808C188.992 364.864 179.84 387.008 172.992 409.664L171.392 414.848 102.4 422.272C80.768 424.512 63.808 445.184 63.808 469.312l0 88.576c0 24.064 16.96 44.8 38.528 47.104l68.992 7.232 1.6 5.12c6.848 22.784 16 44.928 27.328 65.92l2.56 4.8-43.712 54.016c-13.76 16.896-11.008 43.52 6.016 60.544l62.656 62.656c16.512 16.512 44.096 19.392 60.48 6.016L342.464 827.712zM561.216 939.52 472.64 939.52c-9.856 0-19.2-6.656-19.968-14.336l-9.344-87.616-9.088-2.304c-30.208-7.808-59.2-19.776-86.208-35.84L339.84 794.688l-68.544 55.488c-5.248 4.416-17.216 2.816-24.192-4.032l-62.656-62.656c-7.104-7.104-9.024-18.24-4.032-24.192l55.424-68.608L231.04 682.432c-16-27.008-28.032-56-35.84-86.144L193.024 587.136 105.28 577.92C97.536 577.088 91.008 567.936 91.008 557.888L91.008 469.312c0-9.984 6.464-19.2 14.144-20.032l87.872-9.344 2.24-9.152c7.808-30.144 19.84-59.136 35.84-86.144l4.8-8.192L180.352 267.968C175.488 261.952 177.408 250.88 184.448 243.776L247.104 181.12c4.224-4.224 10.112-6.848 15.68-6.848 2.368 0 5.76 0.512 8.512 2.752l68.608 55.488 8.128-4.8c26.944-15.936 55.936-27.968 86.208-35.776l9.152-2.304 9.28-87.744c0.768-7.616 9.92-14.272 20.032-14.272l88.576 0c9.92 0 19.2 6.592 20.032 14.208l9.28 87.808 9.088 2.304c30.336 7.808 59.392 19.84 86.336 35.84l8.064 4.736 68.608-55.488c6.336-4.864 17.408-2.688 24.256 4.16l62.592 62.592c7.04 7.04 9.024 18.176 4.16 24.128L798.08 336.576l4.8 8.192c16 26.88 28.032 55.872 35.776 86.144l2.304 9.216 87.744 9.152c7.744 0.896 14.208 10.048 14.208 20.096l0 88.576c0 10.048-6.464 19.2-14.208 20.096L840.96 587.264l-2.304 9.088c-7.744 30.272-19.776 59.264-35.84 86.272l-4.736 8.064 55.552 68.608c4.864 6.016 2.944 17.088-4.096 24.128l-62.656 62.656c-6.976 6.912-18.496 8.832-24.256 4.096l-68.544-55.424-8.192 4.736c-26.944 16.064-56 28.032-86.208 35.84l-9.088 2.304-9.28 87.808C580.416 933.056 571.2 939.52 561.216 939.52zM468.8 921.92c0.768 0.576 2.112 1.216 3.84 1.216l88.64 0c1.728 0 3.136-0.64 3.904-1.216l10.24-97.472 20.224-5.184c28.608-7.296 56.192-18.752 81.856-33.856l17.984-10.688 76.16 61.76c1.088-0.32 2.432-0.96 3.584-1.984l62.656-62.656c1.216-1.216 1.664-2.624 1.92-3.584l-61.824-76.16 10.688-17.92c15.168-25.664 26.624-53.248 33.92-81.856l5.184-20.288 97.472-10.24c0.576-0.832 1.216-2.176 1.216-3.904L926.464 469.312c0-1.728-0.64-3.136-1.216-3.904l-97.472-10.24-5.184-20.224c-7.296-28.736-18.752-56.256-33.856-81.792l-10.688-17.984 61.76-76.16c-0.256-0.96-0.704-2.368-1.984-3.712l-62.656-62.528c-1.152-1.152-2.496-1.728-3.584-1.984l-76.16 61.696-17.92-10.624c-25.6-15.168-53.184-26.56-81.92-33.92L575.36 202.752 565.056 105.28c-0.704-0.576-2.048-1.152-3.84-1.152L472.704 104.128c-1.728 0-3.136 0.64-3.904 1.152L458.624 202.752l-20.288 5.12c-28.736 7.424-56.32 18.752-81.792 33.92L338.432 252.416 262.272 190.72C261.184 190.976 259.84 191.616 258.752 192.768l-62.72 62.592c-1.28 1.28-1.728 2.624-1.92 3.584l61.76 76.224-10.688 17.92C230.016 378.816 218.56 406.336 211.2 434.944L206.08 455.104 108.608 465.472C108.032 466.176 107.456 467.584 107.456 469.312l0 88.576c0 1.664 0.64 3.072 1.216 3.904l97.408 10.24L211.2 592.32c7.36 28.608 18.816 56.064 33.984 81.792l10.688 17.984-61.76 76.224c0.192 0.896 0.768 2.24 1.92 3.52l62.656 62.656c1.088 1.088 2.496 1.664 3.52 1.984l76.224-61.76 17.92 10.688c25.728 15.104 53.248 26.496 81.92 33.856l20.224 5.184L468.8 921.92zM516.928 666.624c-84.352 0-152.96-68.672-152.96-153.024 0-84.352 68.544-153.024 152.96-153.024 84.416 0 153.088 68.608 153.088 153.024C670.016 597.952 601.344 666.624 516.928 666.624zM516.928 377.024c-75.264 0-136.576 61.248-136.576 136.64 0 75.328 61.312 136.64 136.576 136.64 75.328 0 136.64-61.312 136.64-136.64C653.568 438.272 592.256 377.024 516.928 377.024zM516.928 622.976c-60.288 0-109.312-49.088-109.312-109.376s49.024-109.44 109.312-109.44c60.352 0 109.44 49.152 109.44 109.44S577.28 622.976 516.928 622.976zM516.928 420.608c-51.264 0-92.864 41.664-92.864 92.992 0 51.2 41.6 92.928 92.864 92.928 51.264 0 92.992-41.728 92.992-92.928C609.92 462.336 568.192 420.608 516.928 420.608z" p-id="11938" fill="#ffffff"></path></svg>