<?xml version="1.0" standalone="no"?><!DOCTYPE svg PUBLIC "-//W3C//DTD SVG 1.1//EN" "http://www.w3.org/Graphics/SVG/1.1/DTD/svg11.dtd"><svg t="1494083567801" class="icon" style="" viewBox="0 0 1024 1024" version="1.1" xmlns="http://www.w3.org/2000/svg" p-id="2417" xmlns:xlink="http://www.w3.org/1999/xlink" width="200" height="200"><defs><style type="text/css"></style></defs><path d="M1011.44 856.37 1008.23 872 893.03 872 890.69 870.77C727.04 785.06 549.97 703.45 364.1 686.83L363.88 686.81C363.55 686.77 330.56 683.18 297.99 683.18 268.11 683.18 253.62 686.16 246.72 688.66L245.6 689C214.2 696.65 188.36 712.51 168.81 736.15 145.75 763.95 134.43 801.01 139.95 830.59L144.06 853.53 12 853.53 12 834.2C12 811.13 80.35 705.52 157.17 619.73 163.04 613.16 167.97 607.65 173.49 601.72L185.29 589.26C259.54 511.51 381.06 437.98 494.92 401.88L505.82 398.43 508.81 410.39 509.52 412.09C518.04 432.21 597.43 610.66 750.31 660.52L762.75 664.59 785.98 649.05 792.22 655.64C827.96 693.37 887.03 756.84 906.27 778.93 934.17 779.39 973.2 788.39 994.74 812.59 1007.7 827.07 1013.95 843.44 1011.44 856.37ZM978.7 827.01C962.41 808.7 929.46 800.52 904.03 800.52 903.2 800.52 902.38 800.53 901.56 800.54L896.41 800.65 893.1 796.7C879.78 780.82 820.57 717.06 782.84 677.11L766.01 688.37 743.65 681.06C590.87 631.24 508.26 462.26 491.9 425.58 385.48 461.26 269.61 532.19 200.87 604.17L189.16 616.53C183.85 622.24 178.99 627.66 173.2 634.16 96.13 720.23 40.42 811.12 34.09 831.92L118.33 831.92C112.77 796.82 125.91 754.1 152.25 722.34 174.7 695.19 204.22 676.96 239.98 668.14 252.54 663.73 271.53 661.58 297.99 661.58 331.14 661.58 363.6 665.05 366.12 665.32 554.8 682.22 733.37 764.11 898.31 850.39L990.48 850.39C990.48 845.21 987.01 836.29 978.7 827.01ZM899.17 482.9 893.23 495.24C890.23 501.25 887.07 507.17 883.78 512.95L883.66 513.15 876.38 525.33C847.15 572.83 809.54 612.96 764.51 644.72L760.1 647.82 754.98 646.15C675.94 620.29 617.14 556.3 581.73 507.17 543.66 454.35 524.23 408.14 523.43 406.2L522.94 404.76C514.05 370.53 508.83 333.75 507.43 295.46L507.26 290.84 507.65 290.43C506.51 246.46 513.65 187.68 529.77 160.44L534.77 151.99 543.62 156.19C573.95 170.56 624.86 200.08 640.96 242.1 670 237.63 701.33 235.28 732.19 235.28 758.46 235.28 784.1 236.92 808.52 240.16 826.82 201.08 880.36 167.01 907.19 156.69L916.35 153.16 920.7 161.98C932.98 186.86 938.81 271.1 938.81 288.97L938.7 299.77C938.55 364.84 925.27 426.4 899.17 482.9ZM916.96 278.17C915.77 253 911.26 205.05 904.81 181.29 874.69 195.97 834.69 227.39 825.6 255.37L822.78 264.05 813.78 262.71C787.9 258.85 760.45 256.89 732.19 256.89 699.22 256.89 665.72 259.66 635.32 264.91L625.41 266.62 623.04 256.8C614.55 221.67 570.35 194.09 543.95 180.44 532.97 207.73 527.8 258.33 529.34 294.8L530.36 318.61C532.62 346.43 537.05 373.23 543.57 398.53 548.73 410.44 622.93 576.62 756.55 623.87 797.23 594.32 831.34 557.42 857.99 514.1L865.14 502.13C868.22 496.72 871.17 491.2 873.91 485.7L879.71 473.66C905.82 417.14 918.41 355.02 917.08 289.19L916.85 278.17 916.96 278.17ZM373.31 388.75C343.84 388.75 308.11 382.41 296.23 364.61 292.59 359.14 291.23 352.66 290.88 346.91 279.62 345.34 269.39 344.57 259.81 344.57 221.67 344.57 194.14 356.73 173.15 382.83 152.61 408.65 144.29 440.9 149.14 476.07 152.76 502.81 164.02 531.64 182.63 561.78L187.43 569.56 180.57 575.59C179.3 576.71 178.01 578.01 176.93 579.24L176.63 579.58 159.62 597.56 152.23 585.83C129.52 549.74 115.66 514.64 111.02 481.48 104.56 435.61 115.69 393.17 143.23 358.74 171.4 323.67 208.92 306.42 257.94 305.98 258.43 305.97 259 305.97 259.58 305.97 269.99 305.97 283.96 307.44 301.15 310.34 305.02 304.95 309.82 300.74 315.32 297.98 319.53 295.92 324.75 294.89 330.92 294.89 359.23 294.89 414.56 317.53 444.82 360.03L452.47 370.78 440.45 376.17C422.36 384.29 398.52 388.75 373.31 388.75ZM330.92 316.5C326.81 316.5 325.16 317.21 324.87 317.35 321.43 319.07 318.51 322.32 316.28 326.96L313.36 333.01 312.61 339.02C311.8 345.57 312.83 350.65 314.13 352.61 318.03 358.46 339.56 367.15 373.31 367.15 389.55 367.15 404.97 365.13 418.1 361.35 392.02 333.29 351.83 316.5 330.92 316.5ZM297.42 692.73C331.47 692.73 364.84 696.44 366.25 696.6 367.21 696.72 368.08 696.82 368.95 696.92L378.57 698.12 380.48 705.07C384.29 718.91 389.94 730.61 397.69 740.64 404.1 739.05 410.69 738.22 417.09 738.22 429.77 738.22 441.22 741.32 450.22 747.19 461.85 754.98 468.47 766.77 468.47 779.6L468.47 798.92 373.79 798.92 371.01 796.96C331.61 769.25 295.55 740.86 263.83 712.56L245 695.77 270.11 693.72C278.16 693.07 287.35 692.73 297.42 692.73ZM380.59 777.32 446.77 777.32C445.91 771.47 441.85 767.56 438.38 765.24 433.06 761.77 425.47 759.82 417.09 759.82 410.62 759.82 403.85 760.99 397.52 763.2L390.77 765.56 385.98 760.23C375.37 748.42 367.27 734.19 361.86 717.85 354.55 717.1 326.67 714.43 298.8 714.34 323.85 735.47 351.25 756.57 380.59 777.32Z" p-id="2418"></path></svg>