<?xml version="1.0" standalone="no"?><!DOCTYPE svg PUBLIC "-//W3C//DTD SVG 1.1//EN" "http://www.w3.org/Graphics/SVG/1.1/DTD/svg11.dtd"><svg t="1494249027642" class="icon" style="" viewBox="0 0 1024 1024" version="1.1" xmlns="http://www.w3.org/2000/svg" p-id="5613" xmlns:xlink="http://www.w3.org/1999/xlink" width="200" height="200"><defs><style type="text/css"></style></defs><path d="M948.487 404.767c-44.091-92.19-146.833-291.707-147.867-293.711l-4.488-8.713h-570l-4.489 8.713c-1.033 2.005-103.776 201.522-147.866 293.711-8.798 18.395-11.927 40.32-9.047 63.404 2.731 21.899 10.713 43.849 23.083 63.476 12.835 20.365 29.998 37.454 49.633 49.418 22.080 13.453 46.478 20.274 72.516 20.274 25.667 0 52.21-6.748 78.893-20.055 24.025-11.982 48.251-29.366 72.202-51.791 18.67 25.344 36.438 42.419 56.25 54.299 25.354 15.201 55.090 22.29 93.584 22.308h0.486c38.754-0.017 68.852-7.162 94.72-22.484 20.31-12.029 38.228-29.338 55.488-53.767 23.825 22.25 47.918 39.51 71.82 51.43 26.688 13.31 53.232 20.059 78.895 20.060 0.002 0 0.003 0 0.005 0 26.039 0 50.436-6.819 72.515-20.27 19.636-11.961 36.799-29.048 49.633-49.411 12.371-19.628 20.353-41.579 23.084-63.481 2.879-23.086-0.251-45.012-9.050-63.41zM907.254 514.512c-21.899 34.746-56.507 54.673-94.952 54.672-44.391-0.001-93.463-26.173-141.91-75.684l-14.353-14.669-10.804 17.449c-35.485 57.308-70.509 77.633-133.854 77.665h-0.48c-62.142-0.029-94.743-19.011-134.165-78.12l-11-16.494-13.865 14.17c-48.448 49.513-97.52 75.684-141.908 75.684-38.44 0-73.049-19.931-94.95-54.682-20.060-31.829-24.861-69.459-12.232-95.865 38.618-80.746 122.64-244.603 142.961-284.146h530.778c20.32 39.542 104.342 203.396 142.962 284.146 12.63 26.413 7.83 64.046-12.231 95.875z" p-id="5614" fill="#ffffff"></path><path d="M887.747 673.46c-8.878 0-16.076 7.198-16.076 16.076v179.244c0 14.436-3.488 24.935-10.37 31.203-9.528 8.68-23.744 7.809-24.902 7.721l-0.68-0.091h-666.475c-8.437 0-12.271-3.058-14.421-5.358-7.972-8.528-8.7-26.203-8.332-31.658l0.046-0.608v-184.536c0-8.878-7.197-16.076-16.076-16.076-8.878 0-16.076 7.198-16.076 16.076v183.396c-0.352 5.859-1.179 35.807 16.808 55.21 9.525 10.275 22.682 15.706 38.051 15.706h664.702c1.037 0.083 2.64 0.174 4.686 0.174 9.481 0 28.421-1.965 43.934-15.837 14.105-12.614 21.258-31.227 21.258-55.322v-179.244c0.002-8.878-7.195-16.076-16.074-16.076z" p-id="5615" fill="#ffffff"></path></svg>