<svg class="icon" viewBox="0 0 1024 1024" xmlns="http://www.w3.org/2000/svg" width="200" height="200"><defs><style/></defs><path d="M439.101 880.869c-179.607 0-325.208-60.666-325.208-135.503 0-2.602-.154-5.782 0-8.386-.316-.226.312.226 0 0v-79.319c58.563 57.263 182.179 96.739 325.208 96.739 38.002 0 74.633-2.786 109.037-7.953a225.37 225.37 0 0 1 5.851-36.891c-35.725 5.623-74.438 8.709-114.887 8.709-179.607 0-325.208-60.667-325.208-135.503 0-2.602-.068-5.779 0-8.384v-79.32c58.563 57.263 182.179 96.739 325.208 96.739s266.647-39.475 325.208-96.739v42.732a229.51 229.51 0 0 1 9.034-.195c9.173 0 18.215.562 27.1 1.625V212.387C773.089 130.471 619.252 67.85 439.101 67.85S105.113 130.472 77.758 212.387v560.082c27.356 81.916 175.817 149.207 361.343 147.235 55.381-.588 109.645-6.827 156.558-17.404-7.613-9.954-16.214-22.358-22.111-33.518-40.979 7.762-86.499 12.089-134.448 12.089zm0-776.889c179.607 0 325.208 60.668 325.208 135.503s-145.6 135.503-325.208 135.503-325.208-60.668-325.208-135.503S259.494 103.98 439.101 103.98zM113.892 411.771v-97.388c58.563 57.263 182.179 96.739 325.208 96.739s266.647-39.475 325.208-96.739v97.388c-.312.226.316-.226 0 0 .347 2.566 0 5.783 0 8.384 0 74.835-145.601 135.503-325.208 135.503S113.892 494.99 113.892 420.156c0-2.602-.347-5.819 0-8.385-.316-.225.312.227 0 0zM764.31 573.728c-99.781 0-180.671 80.89-180.671 180.671 0 99.783 80.89 180.671 180.671 180.671 99.783 0 180.671-80.888 180.671-180.671 0-99.781-80.888-180.671-180.671-180.671zm0 325.208c-79.826 0-144.537-64.711-144.537-144.537s64.711-144.537 144.537-144.537 144.537 64.711 144.537 144.537-64.711 144.537-144.537 144.537zm18.067-234.873h-36.134v72.269h-72.269v36.134h72.269v72.269h36.134v-72.269h72.269v-36.134h-72.269v-72.269z"/></svg>