<svg class="icon" viewBox="0 0 1024 1024" xmlns="http://www.w3.org/2000/svg" width="200" height="200"><defs><style/></defs><path d="M727.3 444.773c-5.605 0-11.249.327-16.926.995v-.995c0-102.646-83.501-186.159-186.148-186.159s-186.159 83.501-186.159 186.159v.995a145.822 145.822 0 0 0-16.926-.995c-83.987 0-152.313 68.327-152.313 152.317s68.317 152.313 152.313 152.313H727.29c9.359 0 16.926-7.57 16.926-16.926 0-9.359-7.568-16.926-16.926-16.926H321.141c-65.328 0-118.455-53.15-118.455-118.463 0-75.457 71.852-135.146 149.441-114.223a16.791 16.791 0 0 0 15.534-3.586 16.935 16.935 0 0 0 5.662-14.928c-.973-7.431-1.423-13.669-1.423-19.586 0-83.987 68.317-152.313 152.313-152.313s152.3 68.317 152.3 152.313c0 5.917-.448 12.145-1.423 19.586a17.008 17.008 0 0 0 5.662 14.928 16.929 16.929 0 0 0 15.534 3.586c77.652-20.99 149.443 38.765 149.443 114.223 0 20.093-5.175 39.99-14.967 57.577-4.569 8.17-1.632 18.446 6.527 23.006 8.17 4.564 18.459 1.627 23.017-6.512 12.611-22.614 19.27-48.221 19.27-74.066.001-83.987-68.317-152.317-152.313-152.317z" fill="#fff"/></svg>