<svg class="icon" viewBox="0 0 1024 1024" xmlns="http://www.w3.org/2000/svg" width="200" height="200"><defs><style/></defs><path d="M939.228 79.17H84.767c-44.514 0-80.738 36.21-80.738 80.728V704.87c0 44.514 36.22 80.738 80.738 80.738h316.216v118.86h-158.11v40.361h529.274v-40.36h-149.14V785.607h316.216c44.518 0 80.742-36.22 80.742-80.738V159.898c.006-44.519-36.218-80.727-80.737-80.727zm26.91 625.7c0 14.848-12.072 26.916-26.915 26.916H84.762A26.941 26.941 0 0 1 57.85 704.87V159.898a26.941 26.941 0 0 1 26.91-26.911h854.462a26.941 26.941 0 0 1 26.916 26.91V704.87z" fill="#2c2c2c"/></svg>