<svg class="icon" viewBox="0 0 1024 1024" xmlns="http://www.w3.org/2000/svg" width="200" height="200"><defs><style/></defs><path d="M311.629 380.442L275.43 416.64l72.55 72.55H197.35v51.2h150.605l-72.525 72.55 36.199 36.2 134.323-134.375z" fill="#fff"/><path d="M910.797 88.166l-408.704 81.741-408.704-81.74v840.806l408.704-81.741 408.704 81.74V88.167zm-766.208 62.439l331.008 66.201v583.501L144.589 866.51V150.605zm715.008 715.904l-331.008-66.202v-583.5l331.008-66.202v715.904z" fill="#fff"/><path d="M692.531 380.442l36.199 36.198-72.55 72.55h150.63v51.2H656.205l72.525 72.55-36.199 36.2-134.323-134.375z" fill="#fff"/></svg>