<svg class="icon" viewBox="0 0 1024 1024" xmlns="http://www.w3.org/2000/svg" width="200" height="200"><defs><style/></defs><path d="M512 873.412l481.882-180.706v120.47L512 993.882 30.118 813.176v-120.47L512 873.412zM30.118 451.765v120.47L512 752.941l481.882-180.706v-120.47L512 632.47 30.118 451.765zm963.764-240.941v120.47L512 512 30.118 331.294v-120.47L512 30.118l481.882 180.706zm-655.058-77.102c.06.964.903 1.747 1.987 1.807l110.472 7.35 21.805 39.393c.301.542.843.904 1.446 1.024.12 0 .3.06.421.06.482 0 .964-.18 1.386-.482l46.08-35.298 111.074 7.41c1.024.06 1.987-.543 2.228-1.506.241-.904-.3-1.868-1.325-2.23l-80.113-28.069 42.647-32.527c.723-.602.964-1.506.542-2.289-.422-.783-1.386-1.205-2.29-1.084l-95.773 16.745-81.197-28.43c-.783-.302-1.747-.06-2.29.481-.602.603-.722 1.446-.3 2.169l20.36 36.864-95.414 16.625c-1.084.18-1.807 1.024-1.746 1.987zm.421 115.471c20.962-7.77 32.467-18.371 32.407-29.816-.06-12.469-13.312-24.094-37.346-32.708-23.13-8.373-53.308-12.95-84.992-12.95-29.395 0-56.862 4.035-77.402 11.324-21.685 7.71-33.672 18.432-33.792 30.178-.06 12.288 12.77 23.793 36.2 32.467 23.252 8.613 53.912 13.372 86.137 13.372 30.058 0 58.067-4.217 78.788-11.867zm246.543 28.612c.362-.602.301-1.385-.12-1.988-.422-.602-1.205-.903-1.988-.843l-233.532 21.504c-.964.12-1.747.783-1.868 1.626-.12.904.362 1.747 1.265 2.048l182.092 67.283c.24.12.542.181.783.181.783 0 1.506-.361 1.867-1.024l51.501-88.787zm301.237-61.56c0-.783-.542-1.506-1.325-1.747l-142.336-51.983a2.33 2.33 0 0 0-1.566 0l-126.133 45.357c-.843.301-1.325 1.024-1.385 1.807s.542 1.446 1.325 1.747l142.938 53.368c.241.12.542.12.783.12.301 0 .542-.06.783-.12l125.59-46.742c.844-.362 1.326-1.024 1.326-1.807z"/></svg>