<svg class="icon" viewBox="0 0 1024 1024" xmlns="http://www.w3.org/2000/svg" width="200" height="200"><defs><style/></defs><path d="M932.416 414.144l-63.616-6.72c-6.976-23.296-16.384-45.888-27.904-67.392l40.32-49.792c16.256-20.096 13.312-51.52-6.656-71.488l-62.656-62.656c-10.944-10.944-25.856-17.216-40.704-17.216-11.712 0-22.336 3.712-30.784 10.496l-49.792 40.32c-21.44-11.648-44.032-20.928-67.392-27.968l-6.72-63.616c-2.688-25.728-27.008-45.888-55.296-45.888h-88.512c-28.288 0-52.544 20.16-55.232 45.888l-6.72 63.616c-23.296 7.04-45.952 16.32-67.392 27.968l-49.792-40.32c-8.576-6.848-19.136-10.496-30.784-10.496-14.976 0-29.888 6.272-40.768 17.216l-62.656 62.528c-19.904 20.096-22.848 51.52-6.592 71.552l40.32 49.792c-11.648 21.504-20.992 44.096-27.968 67.328l-63.616 6.784c-25.728 2.624-45.952 27.008-45.952 55.232v88.576c0 28.224 20.16 52.544 45.952 55.232l63.616 6.72c6.976 23.296 16.32 45.952 27.968 67.392l-40.32 49.728c-16.256 20.096-13.312 51.584 6.592 71.552l62.72 62.656c10.88 10.944 25.728 17.216 40.768 17.216 11.648 0 22.208-3.712 30.72-10.56l49.792-40.256c21.44 11.584 44.096 20.864 67.392 27.968l6.656 63.616c2.688 25.728 26.944 45.888 55.168 45.888h88.64c28.224 0 52.544-20.16 55.232-45.888l6.656-63.616c23.296-7.04 45.952-16.384 67.392-27.968l49.792 40.256c8.512 6.912 19.136 10.56 30.784 10.56 14.848 0 29.76-6.272 40.704-17.216l62.656-62.656c20.032-20.032 22.912-51.456 6.656-71.488l-40.32-49.792a356.193 356.193 0 0 0 27.904-67.392l63.616-6.656c25.728-2.688 45.952-27.008 45.952-55.232v-88.64c.128-28.224-20.032-52.608-45.824-55.168zm2.24 143.744c0 6.464-4.032 11.648-6.784 11.904l-93.44 9.856-3.84 14.72c-7.488 29.44-19.264 57.664-34.816 84.032l-7.68 12.992 59.136 73.088c1.728 2.112 1.024 8.64-3.584 13.184l-62.72 62.656c-2.624 2.624-6.464 4.352-9.792 4.352-1.472 0-2.752-.32-3.456-.896l-73.024-59.072-13.056 7.68a322.621 322.621 0 0 1-84.032 34.816l-14.656 3.84-9.856 93.44c-.32 2.688-5.44 6.848-11.904 6.848H472.64c-6.464 0-11.584-4.16-11.84-6.848l-9.792-93.44-14.784-3.84c-29.44-7.552-57.664-19.264-84.032-34.816l-12.992-7.616-73.024 59.072c-.704.576-1.92.896-3.392.896-3.392 0-7.168-1.728-9.92-4.352L190.272 777.6c-4.544-4.544-5.248-11.072-3.52-13.184l59.136-73.088-7.744-13.056c-15.616-26.368-27.328-54.528-34.816-84.032l-3.84-14.72-93.376-9.792c-2.752-.256-6.912-5.44-6.912-11.84v-88.576c0-6.528 4.096-11.584 6.912-11.904l93.376-9.792 3.84-14.72c7.488-29.504 19.264-57.728 34.816-84.032l7.744-13.056-59.136-73.024c-1.728-2.176-1.088-8.576 3.52-13.312l62.592-62.528c2.752-2.752 6.592-4.416 9.92-4.416 1.408 0 2.688.32 3.392.896l73.024 59.072 13.056-7.68a320.425 320.425 0 0 1 84.032-34.944l14.72-3.712 9.792-93.44c.32-2.752 5.376-6.848 11.904-6.848h88.576c6.464 0 11.584 4.096 11.904 6.848l9.856 93.44 14.656 3.712c29.44 7.552 57.664 19.264 84.032 34.944l12.992 7.68 73.088-59.136c.704-.576 1.856-.896 3.392-.896 3.328 0 7.168 1.664 9.856 4.416l62.656 62.528c4.544 4.672 5.312 11.136 3.584 13.312l-59.136 73.024 7.68 13.056c15.552 26.304 27.328 54.528 34.88 84.032l3.776 14.72 93.44 9.792c2.752.32 6.784 5.376 6.784 11.904v88.64h-.064zM516.928 368.832c-79.808 0-144.832 64.96-144.832 144.832 0 79.744 65.024 144.832 144.832 144.832 79.872 0 144.896-65.088 144.896-144.832 0-79.936-65.024-144.832-144.896-144.832zm0 245.952c-55.744 0-101.12-45.376-101.12-101.12 0-55.808 45.376-101.184 101.12-101.184 55.808 0 101.184 45.376 101.184 101.184 0 55.68-45.376 101.12-101.184 101.12zm0 0" fill="#fff"/><path d="M561.216 983.104H472.64c-32.384 0-60.224-23.36-63.36-53.184l-6.144-58.24c-20.224-6.464-40-14.656-58.88-24.448l-45.504 36.864c-22.784 18.368-60.224 14.976-82.496-7.168L153.6 814.272c-22.976-22.912-26.112-59.072-7.168-82.496l36.864-45.504a367.916 367.916 0 0 1-24.448-58.816l-58.24-6.144c-29.888-3.2-53.248-31.04-53.248-63.424v-88.576c0-32.448 23.36-60.288 53.248-63.424l58.24-6.208a372.19 372.19 0 0 1 24.448-58.752l-36.864-45.568c-18.88-23.296-15.744-59.52 7.168-82.496l62.592-62.592c22.272-22.272 59.648-25.728 82.56-7.232l45.504 36.864a371.055 371.055 0 0 1 58.88-24.448l6.144-58.24c3.072-29.76 31.04-53.184 63.424-53.184h88.576c32.384 0 60.224 23.424 63.36 53.248l6.272 58.24c20.16 6.4 39.936 14.656 58.752 24.448l45.568-36.864c22.784-18.432 60.16-15.04 82.496 7.232l62.656 62.592c22.912 22.912 26.048 59.2 7.232 82.496l-36.864 45.568a382.699 382.699 0 0 1 24.448 58.816l58.176 6.144c29.888 3.136 53.248 30.976 53.248 63.424v88.576c0 32.448-23.36 60.224-53.312 63.424L875.2 627.52c-6.464 20.16-14.656 39.936-24.448 58.816l36.864 45.632c18.88 23.296 15.68 59.52-7.232 82.368l-62.656 62.656c-22.4 22.272-59.776 25.536-82.496 7.168l-45.568-36.864a384.86 384.86 0 0 1-58.816 24.448l-6.208 58.176c-3.136 29.824-30.976 53.184-63.424 53.184zM342.464 827.712l4.736 2.56c20.992 11.264 43.136 20.416 65.92 27.392l5.184 1.536 7.232 68.992c2.304 21.632 22.976 38.528 47.04 38.528h88.64c24.128 0 44.864-16.896 47.104-38.528l7.232-68.992 5.248-1.6c22.848-6.912 45.056-16.192 65.856-27.392l4.8-2.56 54.016 43.648c16.384 13.312 44.096 10.56 60.608-6.016l62.656-62.656c17.024-17.088 19.712-43.712 6.016-60.544l-43.648-53.952 2.56-4.8c11.264-21.056 20.416-43.264 27.328-65.984l1.536-5.12 68.992-7.232c21.632-2.24 38.528-22.912 38.528-47.104v-88.576c0-24.128-16.96-44.8-38.528-47.04l-68.992-7.296-1.536-5.184c-6.848-22.72-16.064-44.864-27.328-65.92l-2.56-4.736 43.648-54.016c13.696-16.896 11.008-43.52-6.016-60.544L806.08 161.92c-16.576-16.576-44.096-19.392-60.608-6.016l-54.016 43.648-4.8-2.496c-20.864-11.456-42.944-20.544-65.792-27.456l-5.248-1.536-7.232-69.056c-2.24-21.632-23.04-38.592-47.168-38.592h-88.512c-24.128 0-44.8 16.96-47.104 38.592l-7.296 69.056-5.184 1.536c-22.72 6.912-44.928 15.936-65.92 27.392l-4.736 2.496-54.08-43.648c-16.512-13.44-44.032-10.496-60.416 5.952l-62.72 62.592c-17.088 17.152-19.776 43.776-6.08 60.672l43.712 54.016-2.56 4.736a357.565 357.565 0 0 0-27.328 65.856l-1.6 5.184-68.992 7.424c-21.632 2.24-38.592 22.912-38.592 47.04v88.576c0 24.064 16.96 44.8 38.528 47.104l68.992 7.232 1.6 5.12c6.848 22.784 16 44.928 27.328 65.92l2.56 4.8-43.712 54.016c-13.76 16.896-11.008 43.52 6.016 60.544l62.656 62.656c16.512 16.512 44.096 19.392 60.48 6.016l54.208-43.584zM561.216 939.52H472.64c-9.856 0-19.2-6.656-19.968-14.336l-9.344-87.616-9.088-2.304c-30.208-7.808-59.2-19.776-86.208-35.84l-8.192-4.736-68.544 55.488c-5.248 4.416-17.216 2.816-24.192-4.032l-62.656-62.656c-7.104-7.104-9.024-18.24-4.032-24.192l55.424-68.608-4.8-8.256c-16-27.008-28.032-56-35.84-86.144l-2.176-9.152-87.744-9.216c-7.744-.832-14.272-9.984-14.272-20.032v-88.576c0-9.984 6.464-19.2 14.144-20.032l87.872-9.344 2.24-9.152a332.587 332.587 0 0 1 35.84-86.144l4.8-8.192-55.552-68.48c-4.864-6.016-2.944-17.088 4.096-24.192l62.656-62.656c4.224-4.224 10.112-6.848 15.68-6.848 2.368 0 5.76.512 8.512 2.752l68.608 55.488 8.128-4.8a332.282 332.282 0 0 1 86.208-35.776l9.152-2.304 9.28-87.744c.768-7.616 9.92-14.272 20.032-14.272h88.576c9.92 0 19.2 6.592 20.032 14.208l9.28 87.808 9.088 2.304c30.336 7.808 59.392 19.84 86.336 35.84l8.064 4.736 68.608-55.488c6.336-4.864 17.408-2.688 24.256 4.16l62.592 62.592c7.04 7.04 9.024 18.176 4.16 24.128l-55.616 68.672 4.8 8.192a326.609 326.609 0 0 1 35.776 86.144l2.304 9.216 87.744 9.152c7.744.896 14.208 10.048 14.208 20.096v88.576c0 10.048-6.464 19.2-14.208 20.096l-87.744 9.216-2.304 9.088c-7.744 30.272-19.776 59.264-35.84 86.272l-4.736 8.064 55.552 68.608c4.864 6.016 2.944 17.088-4.096 24.128L786.88 846.08c-6.976 6.912-18.496 8.832-24.256 4.096l-68.544-55.424-8.192 4.736c-26.944 16.064-56 28.032-86.208 35.84l-9.088 2.304-9.28 87.808c-.896 7.616-10.112 14.08-20.096 14.08zm-92.416-17.6c.768.576 2.112 1.216 3.84 1.216h88.64c1.728 0 3.136-.64 3.904-1.216l10.24-97.472 20.224-5.184c28.608-7.296 56.192-18.752 81.856-33.856l17.984-10.688 76.16 61.76a9.623 9.623 0 0 0 3.584-1.984l62.656-62.656c1.216-1.216 1.664-2.624 1.92-3.584l-61.824-76.16 10.688-17.92c15.168-25.664 26.624-53.248 33.92-81.856l5.184-20.288 97.472-10.24a6.877 6.877 0 0 0 1.216-3.904v-88.576c0-1.728-.64-3.136-1.216-3.904l-97.472-10.24-5.184-20.224c-7.296-28.736-18.752-56.256-33.856-81.792l-10.688-17.984 61.76-76.16c-.256-.96-.704-2.368-1.984-3.712l-62.656-62.528a7.513 7.513 0 0 0-3.584-1.984l-76.16 61.696-17.92-10.624a313.03 313.03 0 0 0-81.92-33.92l-20.224-5.184-10.304-97.472c-.704-.576-2.048-1.152-3.84-1.152h-88.512c-1.728 0-3.136.64-3.904 1.152l-10.176 97.472-20.288 5.12c-28.736 7.424-56.32 18.752-81.792 33.92l-18.112 10.624-76.16-61.696a7.236 7.236 0 0 0-3.52 2.048l-62.72 62.592a6.831 6.831 0 0 0-1.92 3.584l61.76 76.224-10.688 17.92c-15.168 25.728-26.624 53.248-33.984 81.856l-5.12 20.16-97.472 10.368c-.576.704-1.152 2.112-1.152 3.84v88.576c0 1.664.64 3.072 1.216 3.904l97.408 10.24 5.12 20.288c7.36 28.608 18.816 56.064 33.984 81.792l10.688 17.984-61.76 76.224c.192.896.768 2.24 1.92 3.52l62.656 62.656c1.088 1.088 2.496 1.664 3.52 1.984l76.224-61.76 17.92 10.688c25.728 15.104 53.248 26.496 81.92 33.856l20.224 5.184L468.8 921.92zm48.128-255.296c-84.352 0-152.96-68.672-152.96-153.024s68.544-153.024 152.96-153.024c84.416 0 153.088 68.608 153.088 153.024 0 84.352-68.672 153.024-153.088 153.024zm0-289.6c-75.264 0-136.576 61.248-136.576 136.64 0 75.328 61.312 136.64 136.576 136.64 75.328 0 136.64-61.312 136.64-136.64 0-75.392-61.312-136.64-136.64-136.64zm0 245.952c-60.288 0-109.312-49.088-109.312-109.376s49.024-109.44 109.312-109.44c60.352 0 109.44 49.152 109.44 109.44s-49.088 109.376-109.44 109.376zm0-202.368c-51.264 0-92.864 41.664-92.864 92.992 0 51.2 41.6 92.928 92.864 92.928S609.92 564.8 609.92 513.6c0-51.264-41.728-92.992-92.992-92.992z" fill="#fff"/></svg>