<svg class="icon" viewBox="0 0 1024 1024" xmlns="http://www.w3.org/2000/svg" width="200" height="200"><defs><style/></defs><path d="M518.349 291.635c1.433 39.117 6.758 74.957 15.36 107.93 0 0 78.233 187.187 227.737 235.93 43.418-30.516 81.101-70.042 110.183-117.146l7.373-12.288a351.69 351.69 0 0 0 9.216-17.203l5.939-12.288c26.01-56.116 40.345-120.628 38.912-191.079h.205c0-19.251-6.144-100.966-17.204-123.29-29.9 11.47-84.582 48.333-96.87 86.017-59.187-8.807-125.747-7.783-184.115 2.252-9.83-40.55-58.778-71.68-95.642-89.088-15.565 26.215-22.528 87.245-20.685 130.458-.204-.41-.41-.205-.41-.205z" fill="#2c2c2c"/><path d="M992.666 821.043c-18.842-21.094-55.706-30.925-86.426-30.31-14.131-16.794-79.053-86.426-118.374-127.795l-20.276 13.516-17.612-5.734c-163.84-53.248-246.99-248.627-250.47-256.82l-1.025-2.457-.41-1.638c-117.35 37.069-238.387 112.64-308.838 186.163l-11.878 12.493c-5.735 6.144-11.06 12.083-16.384 18.022C77.619 719.258 16.793 819.2 16.793 835.584v8.602h109.773l-1.843-10.24c-6.144-32.768 6.144-73.728 31.54-104.244 15.974-19.25 42.188-41.164 83.558-51.2 33.997-12.288 123.494-2.457 123.494-2.457 176.947 15.77 346.112 87.04 537.19 186.777h105.063l1.434-6.963c1.843-9.42-3.482-22.733-14.336-34.816z" fill="#2c2c2c"/><path d="M443.597 756.94c-12.903-8.396-32.768-9.625-50.995-3.276-11.264-12.493-19.252-27.648-24.167-45.466-1.638-.204-3.481-.41-5.12-.614 0 0-54.886-6.144-95.232-2.867 31.335 27.853 67.789 56.525 107.52 84.377h81.51v-8.601c0-9.421-4.915-17.818-13.516-23.552zM157.082 579.174l7.577-7.987a51.126 51.126 0 0 1 4.71-4.71c-22.323-36.045-32.153-66.56-35.43-90.727-5.325-38.502 3.891-73.932 26.624-102.4 35.84-44.441 86.63-47.513 138.855-38.707-1.024 8.192 0 16.18 3.276 21.095 13.722 20.48 88.064 27.648 132.506 7.782-32.768-45.875-98.918-68.198-117.35-59.187-6.144 3.072-10.65 8.397-13.722 14.745-18.022-3.276-36.045-5.734-49.152-5.53-46.08.41-81.306 16.385-107.725 49.153-25.805 32.153-36.454 72.09-30.31 115.507 4.505 32.154 18.022 65.946 40.14 100.966z" fill="#2c2c2c"/></svg>