<svg class="icon" viewBox="0 0 1024 1024" xmlns="http://www.w3.org/2000/svg" width="200" height="200"><defs><style/></defs><path d="M1024 70.4c0-12.8-12.8-25.6-25.6-25.6H25.6C12.8 51.2 0 57.6 0 70.4V352c0 38.4 12.8 76.8 38.4 108.8v518.4h947.2V454.4c25.6-32 38.4-64 38.4-108.8V70.4zM44.8 96h928v256c0 70.4-64 128-140.8 128-76.8 0-140.8-57.6-140.8-128 0-12.8-12.8-25.6-25.6-25.6S640 339.2 640 352c0 70.4-64 128-140.8 128-76.8 0-140.8-57.6-140.8-128 0-12.8-12.8-25.6-25.6-25.6s-25.6 12.8-25.6 25.6c0 70.4-64 128-140.8 128-38.4 0-76.8-12.8-102.4-44.8C64 416 44.8 384 44.8 352V96zm38.4 832V499.2c32 19.2 64 32 102.4 32 70.4 0 128-38.4 160-89.6 38.4 51.2 96 89.6 166.4 89.6s128-38.4 160-89.6c32 51.2 96 89.6 166.4 89.6 38.4 0 70.4-12.8 102.4-32V928H83.2zm0 0"/></svg>