<svg class="icon" viewBox="0 0 1024 1024" xmlns="http://www.w3.org/2000/svg" width="200" height="200"><defs><style/></defs><path d="M892.518 80.64H132.765c-41.38 0-74.91 33.535-74.91 74.905v702.153c0 41.38 33.54 74.91 74.91 74.91h54.675l.49-.58c1.985.375 4.027.58 6.12.58h698.469c41.375 0 74.905-33.54 74.905-74.91V155.544c-.002-41.374-33.541-74.904-74.906-74.904zm9.37 748.968c0 20.69-16.76 37.46-37.465 37.46H160.85c-20.685 0-37.46-16.755-37.46-37.46V183.635c0-20.69 16.76-37.46 37.46-37.46h703.573c20.69 0 37.465 16.76 37.465 37.46v645.973zM306.677 269.024l64.065 2.363c18.66-1.42 32.635-17.7 31.215-36.36-1.417-18.657-17.7-32.635-36.357-31.215l-156.68-5.778c-18.66 1.42-32.637 17.7-31.217 36.36.005.06.017.115.022.175.003.058 0 .115.005.175l.052.277c.21 2.22.62 4.373 1.23 6.438l28.14 147.285c1.417 18.66 17.697 32.637 36.357 31.218 18.66-1.42 32.635-17.7 31.217-36.357l-11.833-61.938 129.91 130.3c12.955 13.295 34.237 13.573 47.532.617 13.295-12.955 13.57-34.235.615-47.532L306.677 269.024zm412.816 0l-64.065 2.363c-18.66-1.42-32.635-17.7-31.215-36.36 1.415-18.657 17.695-32.635 36.355-31.215l156.68-5.778c18.66 1.42 32.64 17.7 31.22 36.36-.005.06-.02.115-.02.175-.005.058 0 .115-.01.175l-.05.277c-.21 2.22-.62 4.373-1.23 6.438l-28.14 147.285c-1.42 18.66-17.7 32.637-36.36 31.218-18.66-1.42-32.635-17.7-31.215-36.357l11.835-61.938-129.91 130.3c-12.955 13.295-34.24 13.57-47.53.617-13.3-12.955-13.57-34.237-.62-47.532l134.275-136.028zM306.677 745.688l64.065-2.36c18.66 1.42 32.635 17.7 31.215 36.36-1.417 18.66-17.7 32.635-36.357 31.22l-156.68 5.77c-18.66-1.415-32.637-17.695-31.217-36.355.005-.06.017-.115.022-.175.003-.06 0-.12.005-.175l.052-.28c.21-2.22.62-4.375 1.23-6.435l28.14-147.29c1.417-18.66 17.697-32.635 36.357-31.215 18.66 1.42 32.635 17.7 31.217 36.36l-11.833 61.935 129.91-130.3c12.955-13.295 34.237-13.57 47.532-.615 13.295 12.955 13.57 34.235.615 47.53L306.677 745.688zm412.816 0l-64.065-2.36c-18.66 1.42-32.635 17.7-31.215 36.36 1.415 18.66 17.695 32.635 36.355 31.22l156.68 5.77c18.66-1.415 32.64-17.695 31.22-36.355-.005-.06-.02-.115-.02-.175-.005-.06 0-.12-.01-.175l-.05-.28c-.21-2.22-.62-4.375-1.23-6.435l-28.14-147.29c-1.415-18.66-17.7-32.635-36.355-31.215-18.66 1.42-32.635 17.7-31.215 36.355l11.83 61.94-129.91-130.3c-12.955-13.295-34.24-13.57-47.53-.615-13.3 12.955-13.57 34.235-.62 47.53l134.275 136.025z"/></svg>