<svg class="icon" viewBox="0 0 1026 1024" xmlns="http://www.w3.org/2000/svg" width="200.391" height="200"><defs><style/></defs><path d="M513.775.441C231.683.441 2.212 229.921 2.212 512.004c0 282.067 229.47 511.555 511.563 511.555 282.074 0 511.563-229.486 511.563-511.555C1025.338 229.921 795.833.441 513.775.441zm0 987.218c-262.284 0-475.665-213.379-475.665-475.655 0-262.275 213.379-475.663 475.665-475.663 262.284 0 475.663 213.388 475.663 475.663 0 262.276-213.377 475.655-475.663 475.655z"/><path d="M279.609 334.112h49.361v58.354h-49.361v-58.354zm98.722 0h353.897v58.354H378.331v-58.354zm-98.722 161.643h49.361v58.354h-49.361v-58.354zm98.722 0h353.897v58.354H378.331v-58.354zm-98.722 143.676h49.361v58.337h-49.361v-58.337zm98.722 0h353.897v58.337H378.331v-58.337z"/></svg>