<?xml version="1.0" standalone="no"?><!DOCTYPE svg PUBLIC "-//W3C//DTD SVG 1.1//EN" "http://www.w3.org/Graphics/SVG/1.1/DTD/svg11.dtd"><svg t="1494254100910" class="icon" style="" viewBox="0 0 1026 1024" version="1.1" xmlns="http://www.w3.org/2000/svg" p-id="18386" xmlns:xlink="http://www.w3.org/1999/xlink" width="200.390625" height="200"><defs><style type="text/css"></style></defs><path d="M513.775 0.441c-282.092 0-511.563 229.48-511.563 511.563 0 282.067 229.47 511.555 511.563 511.555 282.074 0 511.563-229.486 511.563-511.555C1025.338 229.921 795.833 0.441 513.775 0.441zM513.775 987.659c-262.284 0-475.665-213.379-475.665-475.655 0-262.275 213.379-475.663 475.665-475.663 262.284 0 475.663 213.388 475.663 475.663C989.438 774.28 776.061 987.659 513.775 987.659z" p-id="18387"></path><path d="M279.609 334.112l49.361 0 0 58.354-49.361 0 0-58.354Z" p-id="18388"></path><path d="M378.331 334.112l353.897 0 0 58.354-353.897 0 0-58.354Z" p-id="18389"></path><path d="M279.609 495.755l49.361 0 0 58.354-49.361 0 0-58.354Z" p-id="18390"></path><path d="M378.331 495.755l353.897 0 0 58.354-353.897 0 0-58.354Z" p-id="18391"></path><path d="M279.609 639.431l49.361 0 0 58.337-49.361 0 0-58.337Z" p-id="18392"></path><path d="M378.331 639.431l353.897 0 0 58.337-353.897 0 0-58.337Z" p-id="18393"></path></svg>